<svg id="Layer_1" data-name="Layer 1" xmlns="http://www.w3.org/2000/svg" viewBox="0 0 400 400"><defs><style>.cls-1{fill:none;stroke:#000;stroke-linecap:round;stroke-linejoin:round;stroke-width:2px;}.cls-2{font-size:16px;font-family:Montserrat-Light, Montserrat Light;}.cls-3{letter-spacing:0em;}.cls-4{letter-spacing:-0.01em;}.cls-5{letter-spacing:0em;}.cls-6{letter-spacing:-0.02em;}.cls-7{letter-spacing:-0.01em;}.cls-8{letter-spacing:-0.01em;}.cls-9{letter-spacing:-0.01em;}.cls-10{letter-spacing:-0.02em;}.cls-11{letter-spacing:0em;}.cls-12{letter-spacing:0.01em;}</style></defs><title>integrations</title><circle class="cls-1" cx="75.23" cy="359.75" r="3.1"/><circle class="cls-1" cx="109.35" cy="359.75" r="3.1"/><path class="cls-1" d="M50.41,297.71H62.82l8.31,41.54a6.21,6.21,0,0,0,6.21,5h30.15a6.2,6.2,0,0,0,6.2-5l5-26H65.92"/><path class="cls-1" d="M103,9.2H92.94A16.82,16.82,0,0,0,76.13,26V36.1H66V49.55H76.13v26.9H89.58V49.55H99.67L103,36.1H89.58V26a3.36,3.36,0,0,1,3.36-3.37H103Z"/><rect class="cls-1" x="299.9" y="17.98" width="68.34" height="49.7" rx="6.21" ry="6.21"/><line class="cls-1" x1="299.9" y1="36.61" x2="368.24" y2="36.61"/><rect class="cls-1" x="313.89" y="157.48" width="50.91" height="50.91" rx="5.66" ry="5.66"/><line class="cls-1" x1="350.66" y1="151.82" x2="350.66" y2="163.14"/><line class="cls-1" x1="328.03" y1="151.82" x2="328.03" y2="163.14"/><line class="cls-1" x1="313.89" y1="174.45" x2="364.8" y2="174.45"/><polygon class="cls-1" points="53.42 163.14 53.42 208.39 73.22 197.08 95.85 208.39 115.65 197.08 115.65 151.82 95.85 163.14 73.22 151.82 53.42 163.14"/><line class="cls-1" x1="73.22" y1="151.82" x2="73.22" y2="197.08"/><line class="cls-1" x1="95.85" y1="163.14" x2="95.85" y2="208.39"/><path class="cls-1" d="M183.6,153.72h51.27a6.43,6.43,0,0,1,6.41,6.41v38.46a6.43,6.43,0,0,1-6.41,6.41H183.6a6.43,6.43,0,0,1-6.41-6.41V160.13A6.43,6.43,0,0,1,183.6,153.72Z"/><polyline class="cls-1" points="241.28 160.13 209.24 182.56 177.19 160.13"/><path class="cls-1" d="M237.92,52.39a6.37,6.37,0,0,1-6.37,6.37H193.3L180.55,71.51v-51a6.38,6.38,0,0,1,6.37-6.38h44.63a6.38,6.38,0,0,1,6.37,6.38Z"/><text class="cls-2" transform="translate(31.77 97.77)">Social Sign In</text><text class="cls-2" transform="translate(166.1 97.77)">Mess<tspan class="cls-3" x="40.14" y="0">a</tspan><tspan x="49.49" y="0">gi</tspan><tspan class="cls-3" x="64.58" y="0">n</tspan><tspan x="75.36" y="0">g</tspan></text><text class="cls-2" transform="translate(186.53 246.71)">Email</text><text class="cls-2" transform="translate(14.14 246.71)">Geo<tspan class="cls-4" x="31.84" y="0">c</tspan><tspan x="40.58" y="0">odi</tspan><tspan class="cls-5" x="65.47" y="0">n</tspan><tspan x="76.25" y="0">g &amp; Maps</tspan></text><text class="cls-2" transform="translate(293.98 97.77)"><tspan class="cls-6">P</tspan><tspan class="cls-7" x="11.2" y="0">a</tspan><tspan x="20.37" y="0">y</tspan><tspan class="cls-5" x="28.82" y="0">m</tspan><tspan x="45.86" y="0">ents</tspan></text><text class="cls-2" transform="translate(302.01 246.71)">Boo<tspan class="cls-8" x="31.87" y="0">k</tspan><tspan x="41.14" y="0">i</tspan><tspan class="cls-3" x="45.31" y="0">n</tspan><tspan x="56.1" y="0">gs</tspan></text><text class="cls-2" transform="translate(47.25 388.2)"><tspan class="cls-8">Ec</tspan><tspan x="19.3" y="0">om</tspan><tspan class="cls-5" x="46.24" y="0">m</tspan><tspan x="63.28" y="0">e</tspan><tspan class="cls-9" x="72.83" y="0">r</tspan><tspan class="cls-8" x="78.91" y="0">c</tspan><tspan x="87.65" y="0">e</tspan></text><path class="cls-1" d="M237.92,341.06a5.73,5.73,0,0,1-5.74,5.73H186.29a5.73,5.73,0,0,1-5.74-5.73V300.89a5.74,5.74,0,0,1,5.74-5.73h14.34l5.74,8.6h25.81a5.74,5.74,0,0,1,5.74,5.74Z"/><text class="cls-2" transform="translate(162.97 388.2)"><tspan class="cls-7">F</tspan><tspan x="9.94" y="0">ile S</tspan><tspan class="cls-10" x="41.69" y="0">t</tspan><tspan x="47.76" y="0">o</tspan><tspan class="cls-8" x="57.68" y="0">r</tspan><tspan class="cls-3" x="63.84" y="0">a</tspan><tspan class="cls-11" x="73.18" y="0">ge</tspan></text><line class="cls-1" x1="330.44" y1="350.8" x2="330.44" y2="316.99"/><line class="cls-1" x1="350.72" y1="350.8" x2="350.72" y2="296.71"/><line class="cls-1" x1="310.16" y1="350.8" x2="310.16" y2="337.28"/><text class="cls-2" transform="translate(294.79 388.2)">Anal<tspan class="cls-12" x="35.55" y="0">y</tspan><tspan class="cls-11" x="44.24" y="0">tics</tspan></text></svg>