<svg id="Layer_1" data-name="Layer 1" xmlns="http://www.w3.org/2000/svg" viewBox="0 0 400 400"><defs><style>.cls-1{fill:none;stroke:#000;stroke-linecap:round;stroke-linejoin:round;stroke-width:2px;}</style></defs><title>plugins</title><circle class="cls-1" cx="75.23" cy="359.75" r="3.1"/><circle class="cls-1" cx="109.35" cy="359.75" r="3.1"/><path class="cls-1" d="M50.41,297.71H62.82l8.31,41.54a6.21,6.21,0,0,0,6.21,5h30.15a6.2,6.2,0,0,0,6.2-5l5-26H65.92"/><path class="cls-1" d="M103,9.2H92.94A16.82,16.82,0,0,0,76.13,26V36.1H66V49.55H76.13v26.9H89.58V49.55H99.67L103,36.1H89.58V26a3.36,3.36,0,0,1,3.36-3.37H103Z"/><rect class="cls-1" x="299.9" y="17.98" width="68.34" height="49.7" rx="6.21" ry="6.21"/><line class="cls-1" x1="299.9" y1="36.61" x2="368.24" y2="36.61"/><rect class="cls-1" x="313.89" y="157.48" width="50.91" height="50.91" rx="5.66" ry="5.66"/><line class="cls-1" x1="350.66" y1="151.82" x2="350.66" y2="163.14"/><line class="cls-1" x1="328.03" y1="151.82" x2="328.03" y2="163.14"/><line class="cls-1" x1="313.89" y1="174.45" x2="364.8" y2="174.45"/><polygon class="cls-1" points="53.42 163.14 53.42 208.39 73.22 197.08 95.85 208.39 115.65 197.08 115.65 151.82 95.85 163.14 73.22 151.82 53.42 163.14"/><line class="cls-1" x1="73.22" y1="151.82" x2="73.22" y2="197.08"/><line class="cls-1" x1="95.85" y1="163.14" x2="95.85" y2="208.39"/><path class="cls-1" d="M183.6,153.72h51.27a6.43,6.43,0,0,1,6.41,6.41v38.46a6.43,6.43,0,0,1-6.41,6.41H183.6a6.43,6.43,0,0,1-6.41-6.41V160.13A6.43,6.43,0,0,1,183.6,153.72Z"/><polyline class="cls-1" points="241.28 160.13 209.24 182.56 177.19 160.13"/><path class="cls-1" d="M237.92,52.39a6.37,6.37,0,0,1-6.37,6.37H193.3L180.55,71.51v-51a6.38,6.38,0,0,1,6.37-6.38h44.63a6.38,6.38,0,0,1,6.37,6.38Z"/><path d="M34.32,97.42a4.52,4.52,0,0,1-1.74-1.09l.37-.61a4.36,4.36,0,0,0,1.59,1,5.77,5.77,0,0,0,2.11.39,4,4,0,0,0,2.41-.61,1.86,1.86,0,0,0,.82-1.58,1.65,1.65,0,0,0-.43-1.2,2.91,2.91,0,0,0-1.07-.69,15,15,0,0,0-1.73-.5,17.19,17.19,0,0,1-2-.59,3.12,3.12,0,0,1-1.26-.89,2.34,2.34,0,0,1-.52-1.61A2.7,2.7,0,0,1,33.32,88a3,3,0,0,1,1.32-1.08,5.34,5.34,0,0,1,2.22-.4,6.32,6.32,0,0,1,1.82.27,5.31,5.31,0,0,1,1.55.74l-.3.65a5.16,5.16,0,0,0-1.48-.7,5.58,5.58,0,0,0-1.59-.24,3.84,3.84,0,0,0-2.36.62,2,2,0,0,0-.8,1.62,1.66,1.66,0,0,0,.44,1.2,2.75,2.75,0,0,0,1.07.69,15.88,15.88,0,0,0,1.74.51,16.36,16.36,0,0,1,2,.59,3.25,3.25,0,0,1,1.26.87,2.33,2.33,0,0,1,.52,1.58,2.71,2.71,0,0,1-.44,1.49,3.12,3.12,0,0,1-1.36,1.07,5.65,5.65,0,0,1-2.24.4A6.35,6.35,0,0,1,34.32,97.42Z"/><path d="M44.34,97.29a3.89,3.89,0,0,1-1.5-1.51,4.44,4.44,0,0,1-.54-2.19,4.38,4.38,0,0,1,.54-2.18,3.82,3.82,0,0,1,1.5-1.51,4.12,4.12,0,0,1,2.13-.55,4.19,4.19,0,0,1,2.14.55,3.86,3.86,0,0,1,1.49,1.51,4.28,4.28,0,0,1,.55,2.18,4.34,4.34,0,0,1-.55,2.19,3.93,3.93,0,0,1-1.49,1.51,4.28,4.28,0,0,1-2.14.54A4.22,4.22,0,0,1,44.34,97.29Zm3.85-.62a3.21,3.21,0,0,0,1.2-1.25,3.78,3.78,0,0,0,.44-1.83,3.74,3.74,0,0,0-.44-1.82,3.21,3.21,0,0,0-1.2-1.25,3.51,3.51,0,0,0-3.44,0,3.21,3.21,0,0,0-1.2,1.25,3.74,3.74,0,0,0-.44,1.82,3.78,3.78,0,0,0,.44,1.83,3.21,3.21,0,0,0,1.2,1.25,3.58,3.58,0,0,0,3.44,0Z"/><path d="M54.26,97.29a3.89,3.89,0,0,1-1.5-1.51,4.73,4.73,0,0,1,0-4.39,3.86,3.86,0,0,1,1.5-1.5,4.38,4.38,0,0,1,2.18-.54,4.23,4.23,0,0,1,1.83.39,3.4,3.4,0,0,1,1.34,1.15l-.59.43a2.82,2.82,0,0,0-1.12-.94,3.65,3.65,0,0,0-3.21.13,3.16,3.16,0,0,0-1.22,1.24A3.82,3.82,0,0,0,53,93.59a3.76,3.76,0,0,0,.44,1.84,3,3,0,0,0,1.22,1.24,3.4,3.4,0,0,0,1.75.44,3.35,3.35,0,0,0,1.46-.31A2.82,2.82,0,0,0,59,95.86l.59.44a3.3,3.3,0,0,1-1.34,1.14,4.23,4.23,0,0,1-1.83.39A4.38,4.38,0,0,1,54.26,97.29Z"/><path d="M61.94,87.2a.59.59,0,0,1-.19-.46.62.62,0,0,1,.19-.46.64.64,0,0,1,.47-.19.65.65,0,0,1,.46.18.65.65,0,0,1-.46,1.11A.67.67,0,0,1,61.94,87.2ZM62,89.42h.8v8.35H62Z"/><path d="M71.38,90.14a3.06,3.06,0,0,1,.83,2.33v5.3h-.76V96.28a2.8,2.8,0,0,1-1.17,1.14,3.79,3.79,0,0,1-1.84.41,3.43,3.43,0,0,1-2.2-.65,2.28,2.28,0,0,1-.07-3.42,3.6,3.6,0,0,1,2.38-.65h2.87v-.67a2.34,2.34,0,0,0-.64-1.77,2.52,2.52,0,0,0-1.84-.61,4.53,4.53,0,0,0-1.6.28,4.33,4.33,0,0,0-1.29.77l-.4-.57a4.25,4.25,0,0,1,1.51-.87A5.44,5.44,0,0,1,69,89.35,3.35,3.35,0,0,1,71.38,90.14ZM70.32,96.7a3,3,0,0,0,1.1-1.4V93.74H68.57a2.92,2.92,0,0,0-1.79.44,1.66,1.66,0,0,0,.06,2.52,2.68,2.68,0,0,0,1.71.48A3.17,3.17,0,0,0,70.32,96.7Z"/><path d="M75.51,85.9h.8V97.77h-.8Z"/><path d="M84.65,97.42a4.4,4.4,0,0,1-1.73-1.09l.37-.61a4.2,4.2,0,0,0,1.59,1,5.72,5.72,0,0,0,2.1.39,4,4,0,0,0,2.42-.61,1.88,1.88,0,0,0,.81-1.58,1.65,1.65,0,0,0-.43-1.2,2.83,2.83,0,0,0-1.07-.69,14.47,14.47,0,0,0-1.73-.5A16.36,16.36,0,0,1,85,92a3.15,3.15,0,0,1-1.27-.89,2.4,2.4,0,0,1-.52-1.61A2.78,2.78,0,0,1,83.65,88,3,3,0,0,1,85,86.89a5.41,5.41,0,0,1,2.22-.4,6.22,6.22,0,0,1,1.82.27,5.37,5.37,0,0,1,1.56.74l-.31.65a5.16,5.16,0,0,0-1.48-.7,5.58,5.58,0,0,0-1.59-.24,3.81,3.81,0,0,0-2.35.62,2,2,0,0,0-.8,1.62,1.65,1.65,0,0,0,.43,1.2,2.91,2.91,0,0,0,1.07.69,16.16,16.16,0,0,0,1.75.51,16.12,16.12,0,0,1,2,.59,3.18,3.18,0,0,1,1.26.87A2.28,2.28,0,0,1,91,94.89a2.71,2.71,0,0,1-.44,1.49,3,3,0,0,1-1.35,1.07,5.72,5.72,0,0,1-2.24.4A6.44,6.44,0,0,1,84.65,97.42Z"/><path d="M93.48,87.2a.59.59,0,0,1-.19-.46.65.65,0,0,1,.65-.65.67.67,0,0,1,.47.18.65.65,0,0,1,0,.92.64.64,0,0,1-.47.19A.65.65,0,0,1,93.48,87.2Zm.06,2.22h.8v8.35h-.8Z"/><path d="M105.24,89.42v7.45a3.57,3.57,0,0,1-4,4.07,6.82,6.82,0,0,1-2.18-.35,4.32,4.32,0,0,1-1.64-1L97.8,99a4.58,4.58,0,0,0,1.5.9,5.52,5.52,0,0,0,1.87.32,3.4,3.4,0,0,0,2.47-.8,3.31,3.31,0,0,0,.8-2.45V95.56A3.53,3.53,0,0,1,103,97a4.19,4.19,0,0,1-2,.49,4.3,4.3,0,0,1-2.12-.52,3.71,3.71,0,0,1-1.5-1.44,4.35,4.35,0,0,1,0-4.2,3.85,3.85,0,0,1,1.5-1.44,4.4,4.4,0,0,1,2.12-.51,4.27,4.27,0,0,1,2.08.51,3.64,3.64,0,0,1,1.42,1.44V89.42Zm-2.45,6.9A3.08,3.08,0,0,0,104,95.14a3.36,3.36,0,0,0,.44-1.74,3.3,3.3,0,0,0-.44-1.73,3.05,3.05,0,0,0-1.22-1.17,3.56,3.56,0,0,0-1.76-.43,3.52,3.52,0,0,0-1.75.43,3.05,3.05,0,0,0-1.22,1.17,3.4,3.4,0,0,0-.44,1.73,3.46,3.46,0,0,0,.44,1.74,3.08,3.08,0,0,0,1.22,1.18,3.62,3.62,0,0,0,1.75.42A3.66,3.66,0,0,0,102.79,96.32Z"/><path d="M115.19,90.26a3.56,3.56,0,0,1,.91,2.63v4.88h-.8V93a3,3,0,0,0-.71-2.14,2.64,2.64,0,0,0-2-.74,3.09,3.09,0,0,0-2.32.88,3.26,3.26,0,0,0-.85,2.37v4.45h-.8V89.42h.77v1.8a3.22,3.22,0,0,1,1.29-1.37,4,4,0,0,1,2-.5A3.38,3.38,0,0,1,115.19,90.26Z"/><path d="M123.77,86.57h.81v11.2h-.81Z"/><path d="M134.79,90.26a3.56,3.56,0,0,1,.91,2.63v4.88h-.8V93a3,3,0,0,0-.71-2.14,2.66,2.66,0,0,0-2-.74,3.09,3.09,0,0,0-2.32.88,3.26,3.26,0,0,0-.85,2.37v4.45h-.8V89.42H129v1.8a3.16,3.16,0,0,1,1.29-1.37,4,4,0,0,1,2-.5A3.39,3.39,0,0,1,134.79,90.26Z"/><path d="M178.64,97.77V88.18l-4.69,8.1h-.4l-4.69-8.06v9.55h-.8V86.57h.69l5,8.65,5-8.65h.67v11.2Z"/><path d="M190.15,93.78H183a3.57,3.57,0,0,0,.5,1.74,3.18,3.18,0,0,0,1.26,1.18,3.83,3.83,0,0,0,1.78.41,3.94,3.94,0,0,0,1.51-.29,2.9,2.9,0,0,0,1.16-.88l.47.53a3.55,3.55,0,0,1-1.37,1,4.61,4.61,0,0,1-1.79.35,4.5,4.5,0,0,1-2.22-.54,4,4,0,0,1-1.53-1.51,4.29,4.29,0,0,1-.55-2.19,4.48,4.48,0,0,1,.52-2.18,3.79,3.79,0,0,1,1.43-1.51,4.11,4.11,0,0,1,4.09,0,3.77,3.77,0,0,1,1.42,1.49,4.48,4.48,0,0,1,.52,2.18Zm-5.55-3.33a3,3,0,0,0-1.13,1.1,3.62,3.62,0,0,0-.49,1.61h6.4a3.3,3.3,0,0,0-.48-1.6,3.13,3.13,0,0,0-2.72-1.5A3.19,3.19,0,0,0,184.6,90.45Z"/><path d="M192.84,97.53a3.92,3.92,0,0,1-1.43-.77l.37-.64a4.12,4.12,0,0,0,1.32.72,5,5,0,0,0,1.69.29,3.28,3.28,0,0,0,1.86-.42,1.31,1.31,0,0,0,.6-1.15,1.07,1.07,0,0,0-.33-.83,2,2,0,0,0-.8-.45,11.55,11.55,0,0,0-1.33-.3,11,11,0,0,1-1.6-.39,2.49,2.49,0,0,1-1-.67,1.8,1.8,0,0,1-.43-1.28,2,2,0,0,1,.82-1.64,3.72,3.72,0,0,1,2.34-.65,5.77,5.77,0,0,1,1.59.23,3.9,3.9,0,0,1,1.28.59l-.37.64a3.73,3.73,0,0,0-1.17-.56,4.67,4.67,0,0,0-1.34-.19,3,3,0,0,0-1.76.43,1.34,1.34,0,0,0-.59,1.14,1.15,1.15,0,0,0,.33.87,2.23,2.23,0,0,0,.83.46c.32.1.78.21,1.36.33a11.18,11.18,0,0,1,1.58.38,2.37,2.37,0,0,1,1,.64,1.78,1.78,0,0,1,.41,1.24,2,2,0,0,1-.86,1.66,4.08,4.08,0,0,1-2.43.62A6,6,0,0,1,192.84,97.53Z"/><path d="M200.48,97.53a4,4,0,0,1-1.42-.77l.37-.64a4.12,4.12,0,0,0,1.32.72,5,5,0,0,0,1.69.29,3.28,3.28,0,0,0,1.86-.42,1.31,1.31,0,0,0,.6-1.15,1.07,1.07,0,0,0-.33-.83,2.13,2.13,0,0,0-.81-.45,11.3,11.3,0,0,0-1.32-.3,10.71,10.71,0,0,1-1.6-.39,2.43,2.43,0,0,1-1-.67,1.81,1.81,0,0,1-.44-1.28,2,2,0,0,1,.83-1.64,3.72,3.72,0,0,1,2.34-.65,5.82,5.82,0,0,1,1.59.23,4,4,0,0,1,1.28.59l-.37.64a3.73,3.73,0,0,0-1.17-.56,4.72,4.72,0,0,0-1.34-.19,3,3,0,0,0-1.76.43,1.35,1.35,0,0,0-.6,1.14,1.15,1.15,0,0,0,.34.87,2.19,2.19,0,0,0,.82.46c.33.1.78.21,1.37.33a11.18,11.18,0,0,1,1.58.38,2.28,2.28,0,0,1,1,.64,1.74,1.74,0,0,1,.42,1.24,2,2,0,0,1-.86,1.66,4.1,4.1,0,0,1-2.44.62A6.12,6.12,0,0,1,200.48,97.53Z"/><path d="M213.14,90.14a3.1,3.1,0,0,1,.83,2.33v5.3h-.77V96.28A2.72,2.72,0,0,1,212,97.42a3.82,3.82,0,0,1-1.84.41,3.41,3.41,0,0,1-2.2-.65,2.28,2.28,0,0,1-.07-3.42,3.6,3.6,0,0,1,2.38-.65h2.86v-.67a2.33,2.33,0,0,0-.63-1.77,2.55,2.55,0,0,0-1.85-.61,4.51,4.51,0,0,0-1.59.28,4.09,4.09,0,0,0-1.29.77l-.4-.57a4.25,4.25,0,0,1,1.51-.87,5.39,5.39,0,0,1,1.84-.32A3.37,3.37,0,0,1,213.14,90.14Zm-1.06,6.56a2.92,2.92,0,0,0,1.09-1.4V93.74h-2.85a2.89,2.89,0,0,0-1.78.44,1.5,1.5,0,0,0-.55,1.24,1.52,1.52,0,0,0,.61,1.28,2.68,2.68,0,0,0,1.71.48A3.17,3.17,0,0,0,212.08,96.7Z"/><path d="M224.8,89.42v7.45a3.56,3.56,0,0,1-4,4.07,6.78,6.78,0,0,1-2.18-.35,4.44,4.44,0,0,1-1.65-1l.43-.61a4.63,4.63,0,0,0,1.51.9,5.48,5.48,0,0,0,1.87.32,3.35,3.35,0,0,0,2.46-.8A3.27,3.27,0,0,0,224,97V95.56A3.5,3.5,0,0,1,222.58,97a4.23,4.23,0,0,1-2.05.49,4.32,4.32,0,0,1-2.12-.52,3.75,3.75,0,0,1-1.49-1.44,4.28,4.28,0,0,1,0-4.2,3.89,3.89,0,0,1,1.49-1.44,4.43,4.43,0,0,1,2.12-.51,4.24,4.24,0,0,1,2.08.51A3.67,3.67,0,0,1,224,91.3V89.42Zm-2.44,6.9a3.08,3.08,0,0,0,1.22-1.18A3.46,3.46,0,0,0,224,93.4a3.4,3.4,0,0,0-.44-1.73,3.05,3.05,0,0,0-1.22-1.17,3.58,3.58,0,0,0-1.76-.43,3.53,3.53,0,0,0-1.76.43,3.09,3.09,0,0,0-1.21,1.17,3.3,3.3,0,0,0-.44,1.73,3.36,3.36,0,0,0,.44,1.74,3.12,3.12,0,0,0,1.21,1.18,3.63,3.63,0,0,0,1.76.42A3.69,3.69,0,0,0,222.36,96.32Z"/><path d="M228.13,87.2a.59.59,0,0,1-.19-.46.62.62,0,0,1,.19-.46.63.63,0,0,1,.47-.19.65.65,0,0,1,.46.18.65.65,0,0,1-.46,1.11A.66.66,0,0,1,228.13,87.2Zm.07,2.22h.8v8.35h-.8Z"/><path d="M238.93,90.26a3.56,3.56,0,0,1,.91,2.63v4.88H239V93a2.93,2.93,0,0,0-.71-2.14,2.64,2.64,0,0,0-2-.74A3.09,3.09,0,0,0,234,91a3.26,3.26,0,0,0-.85,2.37v4.45h-.8V89.42h.77v1.8a3.22,3.22,0,0,1,1.29-1.37,4,4,0,0,1,2-.5A3.38,3.38,0,0,1,238.93,90.26Z"/><path d="M250.67,89.42v7.45a3.56,3.56,0,0,1-4,4.07,6.78,6.78,0,0,1-2.18-.35,4.44,4.44,0,0,1-1.65-1l.43-.61a4.63,4.63,0,0,0,1.51.9,5.52,5.52,0,0,0,1.87.32,3.4,3.4,0,0,0,2.47-.8,3.31,3.31,0,0,0,.8-2.45V95.56A3.59,3.59,0,0,1,248.45,97a4.23,4.23,0,0,1-2,.49,4.32,4.32,0,0,1-2.12-.52,3.75,3.75,0,0,1-1.49-1.44,4.28,4.28,0,0,1,0-4.2,3.89,3.89,0,0,1,1.49-1.44,4.43,4.43,0,0,1,2.12-.51,4.24,4.24,0,0,1,2.08.51,3.6,3.6,0,0,1,1.43,1.44V89.42Zm-2.44,6.9a3.08,3.08,0,0,0,1.22-1.18,3.46,3.46,0,0,0,.44-1.74,3.4,3.4,0,0,0-.44-1.73,3.05,3.05,0,0,0-1.22-1.17,3.82,3.82,0,0,0-3.52,0,3.09,3.09,0,0,0-1.21,1.17,3.4,3.4,0,0,0-.44,1.73,3.46,3.46,0,0,0,.44,1.74,3.12,3.12,0,0,0,1.21,1.18,3.9,3.9,0,0,0,3.52,0Z"/><path d="M196.21,246v.74h-7.73v-11.2H196v.74H189.3v4.41h6v.72h-6V246Z"/><path d="M211.77,239.21a3.6,3.6,0,0,1,.89,2.62v4.88h-.8v-4.82a3,3,0,0,0-.69-2.14,2.51,2.51,0,0,0-1.92-.74,2.93,2.93,0,0,0-2.23.88,3.33,3.33,0,0,0-.82,2.37v4.45h-.8v-4.82a3,3,0,0,0-.69-2.14,2.51,2.51,0,0,0-1.92-.74,2.91,2.91,0,0,0-2.23.88,3.34,3.34,0,0,0-.83,2.37v4.45h-.8v-8.35h.77v1.79a3.11,3.11,0,0,1,1.24-1.37,3.82,3.82,0,0,1,2-.49,3.41,3.41,0,0,1,1.93.52,2.8,2.8,0,0,1,1.13,1.5,3.19,3.19,0,0,1,1.3-1.47,3.9,3.9,0,0,1,2.07-.55A3.23,3.23,0,0,1,211.77,239.21Z"/><path d="M221.16,239.09a3.06,3.06,0,0,1,.83,2.32v5.3h-.77v-1.49a2.88,2.88,0,0,1-1.17,1.15,3.88,3.88,0,0,1-1.84.4,3.37,3.37,0,0,1-2.2-.65,2.27,2.27,0,0,1-.06-3.42,3.57,3.57,0,0,1,2.37-.65h2.87v-.67a2.33,2.33,0,0,0-.63-1.77,2.56,2.56,0,0,0-1.85-.61,4.23,4.23,0,0,0-1.59.29,3.9,3.9,0,0,0-1.29.76l-.4-.57a4.2,4.2,0,0,1,1.5-.87,5.44,5.44,0,0,1,1.84-.32A3.33,3.33,0,0,1,221.16,239.09Zm-1.07,6.55a3,3,0,0,0,1.1-1.39v-1.57h-2.85a2.8,2.8,0,0,0-1.78.45,1.49,1.49,0,0,0-.56,1.23,1.57,1.57,0,0,0,.61,1.29,2.78,2.78,0,0,0,1.71.47A3.12,3.12,0,0,0,220.09,245.64Z"/><path d="M225.22,236.14a.58.58,0,0,1-.19-.45.63.63,0,0,1,.19-.47.62.62,0,0,1,.46-.19.67.67,0,0,1,.47.18.62.62,0,0,1,.19.46.6.6,0,0,1-.19.46.65.65,0,0,1-.47.2A.66.66,0,0,1,225.22,236.14Zm.06,2.22h.8v8.35h-.8Z"/><path d="M229.46,234.84h.8v11.87h-.8Z"/><path d="M24.09,241.16h.79v4.19a4.81,4.81,0,0,1-1.79,1.07,6.45,6.45,0,0,1-2.21.37,6,6,0,0,1-3-.74,5.39,5.39,0,0,1-2.1-2,6,6,0,0,1,0-5.82,5.39,5.39,0,0,1,2.1-2,6.13,6.13,0,0,1,3-.74,6.36,6.36,0,0,1,2.27.39A4.72,4.72,0,0,1,24.93,237l-.52.54a4.25,4.25,0,0,0-1.57-1,5.92,5.92,0,0,0-1.93-.31,5.36,5.36,0,0,0-2.6.64,4.76,4.76,0,0,0-1.82,1.77,5,5,0,0,0-.65,2.52,4.84,4.84,0,0,0,.66,2.5,4.72,4.72,0,0,0,1.82,1.78,5.21,5.21,0,0,0,2.59.65,4.84,4.84,0,0,0,3.18-1Z"/><path d="M35.26,242.73H28.08a3.43,3.43,0,0,0,.49,1.73,3.18,3.18,0,0,0,1.26,1.18,3.74,3.74,0,0,0,1.78.41,3.81,3.81,0,0,0,1.52-.29,3,3,0,0,0,1.16-.87l.46.52a3.48,3.48,0,0,1-1.37,1,4.38,4.38,0,0,1-1.78.35,4.54,4.54,0,0,1-2.23-.54,3.85,3.85,0,0,1-1.52-1.5,4.31,4.31,0,0,1-.56-2.2,4.62,4.62,0,0,1,.52-2.18,3.88,3.88,0,0,1,1.44-1.51,4.09,4.09,0,0,1,4.08,0,3.82,3.82,0,0,1,1.43,1.5,4.55,4.55,0,0,1,.52,2.17Zm-5.55-3.34a3,3,0,0,0-1.13,1.1,3.75,3.75,0,0,0-.49,1.61h6.4a3.3,3.3,0,0,0-.48-1.6,3.06,3.06,0,0,0-1.13-1.1,3.13,3.13,0,0,0-1.59-.4A3.22,3.22,0,0,0,29.71,239.39Z"/><path d="M38.89,246.23a3.89,3.89,0,0,1-1.5-1.51,4.69,4.69,0,0,1,0-4.37,3.89,3.89,0,0,1,1.5-1.51,4.22,4.22,0,0,1,2.13-.55,4.29,4.29,0,0,1,2.14.55,3.93,3.93,0,0,1,1.49,1.51,4.62,4.62,0,0,1,0,4.37,3.93,3.93,0,0,1-1.49,1.51,4.28,4.28,0,0,1-2.14.54A4.22,4.22,0,0,1,38.89,246.23Zm3.85-.62a3.21,3.21,0,0,0,1.2-1.25,4,4,0,0,0,0-3.65,3.21,3.21,0,0,0-1.2-1.25,3.51,3.51,0,0,0-3.44,0,3.35,3.35,0,0,0-1.2,1.25,4,4,0,0,0,0,3.65,3.35,3.35,0,0,0,1.2,1.25,3.58,3.58,0,0,0,3.44,0Z"/><path d="M48.81,246.23a3.89,3.89,0,0,1-1.5-1.51,4.73,4.73,0,0,1,0-4.39,3.86,3.86,0,0,1,1.5-1.5,4.38,4.38,0,0,1,2.18-.54,4.09,4.09,0,0,1,1.83.4,3.3,3.3,0,0,1,1.34,1.14l-.59.43a2.79,2.79,0,0,0-1.12-.93A3.36,3.36,0,0,0,51,239a3.53,3.53,0,0,0-1.75.44A3.16,3.16,0,0,0,48,240.69a3.82,3.82,0,0,0-.44,1.84,3.76,3.76,0,0,0,.44,1.84,3,3,0,0,0,1.22,1.24,3.42,3.42,0,0,0,1.75.44,3.35,3.35,0,0,0,1.46-.31,2.88,2.88,0,0,0,1.12-.93l.59.43a3.3,3.3,0,0,1-1.34,1.14,4.23,4.23,0,0,1-1.83.39A4.38,4.38,0,0,1,48.81,246.23Z"/><path d="M57.54,246.23a3.93,3.93,0,0,1-1.49-1.51,4.62,4.62,0,0,1,0-4.37,3.93,3.93,0,0,1,1.49-1.51,4.29,4.29,0,0,1,2.14-.55,4.22,4.22,0,0,1,2.13.55,3.89,3.89,0,0,1,1.5,1.51,4.69,4.69,0,0,1,0,4.37,3.89,3.89,0,0,1-1.5,1.51,4.22,4.22,0,0,1-2.13.54A4.28,4.28,0,0,1,57.54,246.23Zm3.86-.62a3.35,3.35,0,0,0,1.2-1.25,4,4,0,0,0,0-3.65,3.35,3.35,0,0,0-1.2-1.25,3.51,3.51,0,0,0-3.44,0,3.21,3.21,0,0,0-1.2,1.25,4,4,0,0,0,0,3.65,3.21,3.21,0,0,0,1.2,1.25,3.58,3.58,0,0,0,3.44,0Z"/><path d="M73.76,234.84v11.87H73v-2a3.63,3.63,0,0,1-1.39,1.51,3.93,3.93,0,0,1-2,.52,4.17,4.17,0,0,1-2.11-.54,3.88,3.88,0,0,1-1.48-1.5,4.4,4.4,0,0,1-.54-2.2,4.45,4.45,0,0,1,.54-2.2,3.88,3.88,0,0,1,1.48-1.5,4.17,4.17,0,0,1,2.11-.54,3.87,3.87,0,0,1,2,.53,3.81,3.81,0,0,1,1.4,1.47v-5.45Zm-2.44,10.77a3.35,3.35,0,0,0,1.2-1.25,4,4,0,0,0,0-3.65,3.35,3.35,0,0,0-1.2-1.25,3.51,3.51,0,0,0-3.44,0,3.21,3.21,0,0,0-1.2,1.25,4,4,0,0,0,0,3.65,3.21,3.21,0,0,0,1.2,1.25,3.58,3.58,0,0,0,3.44,0Z"/><path d="M77.07,236.14a.58.58,0,0,1-.19-.45.63.63,0,0,1,.19-.47.62.62,0,0,1,.46-.19.66.66,0,0,1,.47.18.62.62,0,0,1,.19.46.6.6,0,0,1-.19.46.63.63,0,0,1-.47.2A.66.66,0,0,1,77.07,236.14Zm.06,2.22h.8v8.35h-.8Z"/><path d="M87.87,239.21a3.52,3.52,0,0,1,.91,2.62v4.88H88v-4.82a3,3,0,0,0-.71-2.14,2.66,2.66,0,0,0-2-.74,3.09,3.09,0,0,0-2.32.88,3.26,3.26,0,0,0-.85,2.37v4.45h-.8v-8.35h.77v1.81a3.13,3.13,0,0,1,1.29-1.38,4,4,0,0,1,2-.5A3.34,3.34,0,0,1,87.87,239.21Z"/><path d="M99.61,238.36v7.45a3.56,3.56,0,0,1-4,4.07,6.76,6.76,0,0,1-2.17-.35,4.31,4.31,0,0,1-1.65-1l.43-.61a4.46,4.46,0,0,0,1.51.9,5.48,5.48,0,0,0,1.87.32,3.4,3.4,0,0,0,2.46-.79,3.31,3.31,0,0,0,.8-2.46V244.5a3.5,3.5,0,0,1-1.42,1.41,4.23,4.23,0,0,1-2,.5,4.44,4.44,0,0,1-2.12-.52,3.85,3.85,0,0,1-1.49-1.45,4,4,0,0,1-.55-2.1,4,4,0,0,1,.55-2.09,3.75,3.75,0,0,1,1.49-1.44,4.32,4.32,0,0,1,2.12-.52,4.14,4.14,0,0,1,2.08.52,3.54,3.54,0,0,1,1.43,1.44v-1.89Zm-2.44,6.9a3,3,0,0,0,1.22-1.18,3.46,3.46,0,0,0,.44-1.74,3.42,3.42,0,0,0-.44-1.73,3.05,3.05,0,0,0-1.22-1.17A3.71,3.71,0,0,0,95.4,239a3.63,3.63,0,0,0-1.75.43,3.09,3.09,0,0,0-1.21,1.17,3.32,3.32,0,0,0-.44,1.73,3.36,3.36,0,0,0,.44,1.74,3.05,3.05,0,0,0,1.21,1.18,3.52,3.52,0,0,0,1.75.43A3.6,3.6,0,0,0,97.17,245.26Z"/><path d="M115.25,246.87l-1.62-1.7a4.38,4.38,0,0,1-1.63,1.21,5.28,5.28,0,0,1-2.1.41,4.93,4.93,0,0,1-1.89-.35,3.1,3.1,0,0,1-1.29-1,2.45,2.45,0,0,1-.47-1.46,2.75,2.75,0,0,1,.66-1.78,8.35,8.35,0,0,1,2.24-1.74l0,0A7,7,0,0,1,108,239a2.61,2.61,0,0,1-.31-1.26,2.09,2.09,0,0,1,.72-1.66,2.84,2.84,0,0,1,1.94-.62,2.71,2.71,0,0,1,1.8.56,2,2,0,0,1,.66,1.56,2.27,2.27,0,0,1-.56,1.5,8.3,8.3,0,0,1-2,1.5l3.31,3.5a7.32,7.32,0,0,0,.8-2.27l.66.21a7.66,7.66,0,0,1-1,2.57l1.67,1.76Zm-2.1-2.21-3.54-3.73a8.42,8.42,0,0,0-2,1.52,2.23,2.23,0,0,0-.55,1.48,1.91,1.91,0,0,0,.8,1.58,3.37,3.37,0,0,0,2.09.61A3.91,3.91,0,0,0,113.15,244.66Zm-4.43-5.91a7.7,7.7,0,0,0,1.07,1.34,8.51,8.51,0,0,0,1.82-1.31,1.72,1.72,0,0,0,.5-1.19,1.42,1.42,0,0,0-.46-1.11,1.93,1.93,0,0,0-1.3-.41,2,2,0,0,0-1.4.46,1.52,1.52,0,0,0-.51,1.2A2.09,2.09,0,0,0,108.72,238.75Z"/><path d="M132.56,246.71l0-9.58-4.69,8.09h-.4l-4.69-8.06v9.55H122v-11.2h.69l5,8.66,5-8.66h.67l0,11.2Z"/><path d="M142.2,239.09a3,3,0,0,1,.84,2.32v5.3h-.77v-1.49a2.88,2.88,0,0,1-1.17,1.15,3.88,3.88,0,0,1-1.84.4,3.37,3.37,0,0,1-2.2-.65,2.27,2.27,0,0,1-.06-3.42,3.55,3.55,0,0,1,2.37-.65h2.87v-.67a2.3,2.3,0,0,0-.64-1.77,2.52,2.52,0,0,0-1.84-.61,4.32,4.32,0,0,0-1.6.29,4,4,0,0,0-1.28.76l-.4-.57a4.12,4.12,0,0,1,1.5-.87,5.44,5.44,0,0,1,1.84-.32A3.31,3.31,0,0,1,142.2,239.09Zm-1.06,6.55a3,3,0,0,0,1.1-1.39v-1.57h-2.85a2.85,2.85,0,0,0-1.79.45,1.51,1.51,0,0,0-.55,1.23,1.55,1.55,0,0,0,.61,1.29,2.78,2.78,0,0,0,1.71.47A3.12,3.12,0,0,0,141.14,245.64Z"/><path d="M152.64,238.84a3.88,3.88,0,0,1,1.48,1.5,4.81,4.81,0,0,1,0,4.39,3.84,3.84,0,0,1-1.48,1.51,4.2,4.2,0,0,1-2.12.53,3.9,3.9,0,0,1-2-.52,3.63,3.63,0,0,1-1.39-1.44v5h-.8V238.36h.77v2a3.69,3.69,0,0,1,1.4-1.5,3.87,3.87,0,0,1,2-.54A4.21,4.21,0,0,1,152.64,238.84Zm-.44,6.77a3.16,3.16,0,0,0,1.21-1.25,4,4,0,0,0,0-3.65,3.16,3.16,0,0,0-1.21-1.25,3.51,3.51,0,0,0-3.44,0,3.21,3.21,0,0,0-1.2,1.25,4,4,0,0,0,0,3.65,3.21,3.21,0,0,0,1.2,1.25,3.58,3.58,0,0,0,3.44,0Z"/><path d="M157.32,246.47a4,4,0,0,1-1.42-.77l.37-.64a4.12,4.12,0,0,0,1.32.72,5,5,0,0,0,1.69.29,3.28,3.28,0,0,0,1.86-.42,1.31,1.31,0,0,0,.6-1.15,1.07,1.07,0,0,0-.33-.83,2.13,2.13,0,0,0-.81-.45c-.32-.09-.76-.2-1.32-.3a10.71,10.71,0,0,1-1.6-.39,2.34,2.34,0,0,1-1-.67,1.79,1.79,0,0,1-.44-1.28,2,2,0,0,1,.83-1.64,3.72,3.72,0,0,1,2.34-.65,5.77,5.77,0,0,1,1.59.23,3.9,3.9,0,0,1,1.28.59l-.37.64a3.73,3.73,0,0,0-1.17-.56,4.72,4.72,0,0,0-1.34-.19,3,3,0,0,0-1.76.43,1.35,1.35,0,0,0-.6,1.14,1.15,1.15,0,0,0,.34.87,2.06,2.06,0,0,0,.82.46c.33.1.79.21,1.37.33a11.18,11.18,0,0,1,1.58.38,2.37,2.37,0,0,1,1,.64,1.74,1.74,0,0,1,.42,1.24,2,2,0,0,1-.86,1.66,4.1,4.1,0,0,1-2.44.62A6.12,6.12,0,0,1,157.32,246.47Z"/><path d="M303.26,87.57a3.79,3.79,0,0,1,0,5.53,5,5,0,0,1-3.31,1h-3.2v3.67h-.82V86.57h4A5,5,0,0,1,303.26,87.57Zm-.58,5a3.13,3.13,0,0,0,0-4.49,4.13,4.13,0,0,0-2.73-.8h-3.2v6.07H300A4.19,4.19,0,0,0,302.68,92.59Z"/><path d="M312.07,90.14a3.06,3.06,0,0,1,.84,2.33v5.3h-.77V96.28A2.8,2.8,0,0,1,311,97.42a3.79,3.79,0,0,1-1.84.41,3.43,3.43,0,0,1-2.2-.65,2.27,2.27,0,0,1-.06-3.42,3.55,3.55,0,0,1,2.37-.65h2.87v-.67a2.34,2.34,0,0,0-.64-1.77,2.52,2.52,0,0,0-1.84-.61,4.53,4.53,0,0,0-1.6.28,4.16,4.16,0,0,0-1.28.77l-.4-.57a4.12,4.12,0,0,1,1.5-.87,5.44,5.44,0,0,1,1.84-.32A3.35,3.35,0,0,1,312.07,90.14ZM311,96.7a3,3,0,0,0,1.1-1.4V93.74h-2.85a2.92,2.92,0,0,0-1.79.44,1.66,1.66,0,0,0,.06,2.52,2.7,2.7,0,0,0,1.71.48A3.17,3.17,0,0,0,311,96.7Z"/><path d="M322.75,89.42l-4.29,9.48a3.75,3.75,0,0,1-1.11,1.57,2.48,2.48,0,0,1-1.5.47,3,3,0,0,1-1.08-.2,2.18,2.18,0,0,1-.86-.56l.4-.6a2.13,2.13,0,0,0,1.56.65,1.68,1.68,0,0,0,1-.33,3.19,3.19,0,0,0,.8-1.16l.44-1-3.76-8.32h.85l3.35,7.47,3.34-7.47Z"/><path d="M337.33,90.26a3.64,3.64,0,0,1,.89,2.63v4.88h-.8V93a3,3,0,0,0-.69-2.14,2.51,2.51,0,0,0-1.92-.74,2.93,2.93,0,0,0-2.23.88,3.34,3.34,0,0,0-.83,2.37v4.45H331V93a3.05,3.05,0,0,0-.68-2.14,2.51,2.51,0,0,0-1.92-.74,3,3,0,0,0-2.24.88,3.33,3.33,0,0,0-.82,2.37v4.45h-.8V89.42h.77v1.79a3.11,3.11,0,0,1,1.24-1.37,3.82,3.82,0,0,1,2-.49,3.49,3.49,0,0,1,1.93.51,2.85,2.85,0,0,1,1.12,1.51,3.27,3.27,0,0,1,1.31-1.47,3.81,3.81,0,0,1,2.07-.55A3.28,3.28,0,0,1,337.33,90.26Z"/><path d="M348.59,93.78H341.4a3.47,3.47,0,0,0,.5,1.74,3.22,3.22,0,0,0,1.25,1.18,3.9,3.9,0,0,0,1.79.41,3.94,3.94,0,0,0,1.51-.29,3,3,0,0,0,1.16-.88l.46.53a3.52,3.52,0,0,1-1.36,1,4.61,4.61,0,0,1-1.79.35,4.5,4.5,0,0,1-2.22-.54,4,4,0,0,1-1.53-1.51,4.29,4.29,0,0,1-.55-2.19,4.48,4.48,0,0,1,.52-2.18,3.72,3.72,0,0,1,1.43-1.51,3.86,3.86,0,0,1,2.05-.55,3.94,3.94,0,0,1,2,.54,3.84,3.84,0,0,1,1.42,1.49,4.48,4.48,0,0,1,.52,2.18ZM343,90.45a3,3,0,0,0-1.12,1.1,3.49,3.49,0,0,0-.49,1.61h6.4a3.3,3.3,0,0,0-.48-1.6,3.08,3.08,0,0,0-1.14-1.1,3.12,3.12,0,0,0-1.58-.4A3.23,3.23,0,0,0,343,90.45Z"/><path d="M357.64,90.26a3.56,3.56,0,0,1,.91,2.63v4.88h-.8V93a2.93,2.93,0,0,0-.71-2.14,2.64,2.64,0,0,0-2-.74,3.09,3.09,0,0,0-2.32.88,3.26,3.26,0,0,0-.85,2.37v4.45h-.8V89.42h.77v1.8a3.22,3.22,0,0,1,1.29-1.37,4,4,0,0,1,2-.5A3.38,3.38,0,0,1,357.64,90.26Z"/><path d="M366,97.24a2,2,0,0,1-.76.44,3,3,0,0,1-1,.15A2.07,2.07,0,0,1,362,95.56V90.1h-1.54v-.68H362V87.59h.8v1.83h2.66v.68h-2.66v5.38a1.77,1.77,0,0,0,.39,1.24,1.51,1.51,0,0,0,1.16.42,1.86,1.86,0,0,0,1.3-.46Z"/><path d="M368.41,97.53a3.87,3.87,0,0,1-1.42-.77l.36-.64a4.35,4.35,0,0,0,1.32.72,5.09,5.09,0,0,0,1.69.29,3.32,3.32,0,0,0,1.87-.42,1.31,1.31,0,0,0,.6-1.15,1.07,1.07,0,0,0-.33-.83,2.13,2.13,0,0,0-.81-.45,11.07,11.07,0,0,0-1.33-.3,11.38,11.38,0,0,1-1.6-.39,2.56,2.56,0,0,1-1-.67,1.8,1.8,0,0,1-.43-1.28,2,2,0,0,1,.82-1.64,3.74,3.74,0,0,1,2.35-.65,5.7,5.7,0,0,1,1.58.23,3.9,3.9,0,0,1,1.28.59l-.37.64a3.78,3.78,0,0,0-1.16-.56,4.74,4.74,0,0,0-1.35-.19,3,3,0,0,0-1.76.43,1.36,1.36,0,0,0-.59,1.14,1.12,1.12,0,0,0,.34.87,2.11,2.11,0,0,0,.82.46c.33.1.78.21,1.37.33a11,11,0,0,1,1.57.38,2.37,2.37,0,0,1,1,.64,1.74,1.74,0,0,1,.42,1.24,2,2,0,0,1-.87,1.66,4,4,0,0,1-2.43.62A6.12,6.12,0,0,1,368.41,97.53Z"/><path d="M312.45,241.88a2.69,2.69,0,0,1,.64,1.87,2.56,2.56,0,0,1-1,2.19,5.21,5.21,0,0,1-3.09.77h-5v-11.2h4.67a4.79,4.79,0,0,1,2.84.74,2.47,2.47,0,0,1,1,2.12A2.56,2.56,0,0,1,312,240a2.75,2.75,0,0,1-1.37.94A3.1,3.1,0,0,1,312.45,241.88Zm-7.67-5.67v4.47h3.83a3.83,3.83,0,0,0,2.26-.57,2.15,2.15,0,0,0,0-3.33,3.83,3.83,0,0,0-2.26-.57Zm6.65,9.23a2.24,2.24,0,0,0,0-3.5,4.49,4.49,0,0,0-2.47-.56h-4.18V246H309A4.4,4.4,0,0,0,311.43,245.44Z"/><path d="M316.87,246.23a4,4,0,0,1-1.5-1.51,4.69,4.69,0,0,1,0-4.37,4,4,0,0,1,1.5-1.51,4.42,4.42,0,0,1,4.27,0,3.89,3.89,0,0,1,1.5,1.51,4.69,4.69,0,0,1,0,4.37,3.89,3.89,0,0,1-1.5,1.51,4.49,4.49,0,0,1-4.27,0Zm3.86-.62a3.35,3.35,0,0,0,1.2-1.25,4,4,0,0,0,0-3.65,3.35,3.35,0,0,0-1.2-1.25,3.51,3.51,0,0,0-3.44,0,3.21,3.21,0,0,0-1.2,1.25,4,4,0,0,0,0,3.65,3.21,3.21,0,0,0,1.2,1.25,3.58,3.58,0,0,0,3.44,0Z"/><path d="M326.79,246.23a4,4,0,0,1-1.5-1.51,4.69,4.69,0,0,1,0-4.37,4,4,0,0,1,1.5-1.51,4.42,4.42,0,0,1,4.27,0,3.89,3.89,0,0,1,1.5,1.51,4.69,4.69,0,0,1,0,4.37,3.89,3.89,0,0,1-1.5,1.51,4.49,4.49,0,0,1-4.27,0Zm3.86-.62a3.35,3.35,0,0,0,1.2-1.25,4,4,0,0,0,0-3.65,3.35,3.35,0,0,0-1.2-1.25,3.51,3.51,0,0,0-3.44,0,3.21,3.21,0,0,0-1.2,1.25,4,4,0,0,0,0,3.65,3.21,3.21,0,0,0,1.2,1.25,3.58,3.58,0,0,0,3.44,0Z"/><path d="M338.56,242.25l-2.18,2v2.48h-.8V234.84h.8v8.4l5.35-4.88h1l-3.6,3.37,4,5h-1Z"/><path d="M344.78,236.14a.58.58,0,0,1-.19-.45.63.63,0,0,1,.19-.47.64.64,0,0,1,.47-.19.65.65,0,0,1,.46.18.62.62,0,0,1,.19.46.6.6,0,0,1-.19.46.63.63,0,0,1-.46.2A.68.68,0,0,1,344.78,236.14Zm.07,2.22h.8v8.35h-.8Z"/><path d="M355.58,239.21a3.52,3.52,0,0,1,.91,2.62v4.88h-.8v-4.82a2.94,2.94,0,0,0-.71-2.14,2.64,2.64,0,0,0-2-.74,3.11,3.11,0,0,0-2.32.88,3.26,3.26,0,0,0-.85,2.37v4.45H349v-8.35h.77v1.81a3.18,3.18,0,0,1,1.29-1.38,4,4,0,0,1,2-.5A3.34,3.34,0,0,1,355.58,239.21Z"/><path d="M367.33,238.36v7.45a3.56,3.56,0,0,1-4.05,4.07,6.78,6.78,0,0,1-2.18-.35,4.31,4.31,0,0,1-1.65-1l.44-.61a4.32,4.32,0,0,0,1.5.9,5.52,5.52,0,0,0,1.87.32,3.44,3.44,0,0,0,2.47-.79,3.35,3.35,0,0,0,.8-2.46V244.5a3.59,3.59,0,0,1-1.43,1.41,4.23,4.23,0,0,1-2.05.5,4.44,4.44,0,0,1-2.12-.52,3.85,3.85,0,0,1-1.49-1.45,4.11,4.11,0,0,1-.55-2.1,4,4,0,0,1,.55-2.09,3.75,3.75,0,0,1,1.49-1.44,4.32,4.32,0,0,1,2.12-.52,4.12,4.12,0,0,1,2.08.52,3.48,3.48,0,0,1,1.43,1.44v-1.89Zm-2.45,6.9a3,3,0,0,0,1.22-1.18,3.36,3.36,0,0,0,.44-1.74,3.32,3.32,0,0,0-.44-1.73,3.05,3.05,0,0,0-1.22-1.17,3.7,3.7,0,0,0-1.76-.43,3.6,3.6,0,0,0-1.75.43,3.05,3.05,0,0,0-1.22,1.17,3.42,3.42,0,0,0-.44,1.73,3.46,3.46,0,0,0,.44,1.74,3,3,0,0,0,1.22,1.18,3.49,3.49,0,0,0,1.75.43A3.58,3.58,0,0,0,364.88,245.26Z"/><path d="M370.91,246.47a3.87,3.87,0,0,1-1.42-.77l.36-.64a4.35,4.35,0,0,0,1.32.72,5.09,5.09,0,0,0,1.69.29,3.32,3.32,0,0,0,1.87-.42,1.31,1.31,0,0,0,.6-1.15,1.07,1.07,0,0,0-.33-.83,2.13,2.13,0,0,0-.81-.45,13.45,13.45,0,0,0-1.33-.3,11.38,11.38,0,0,1-1.6-.39,2.46,2.46,0,0,1-1-.67,1.79,1.79,0,0,1-.43-1.28,2,2,0,0,1,.82-1.64,3.74,3.74,0,0,1,2.35-.65,5.7,5.7,0,0,1,1.58.23,3.9,3.9,0,0,1,1.28.59l-.37.64a3.78,3.78,0,0,0-1.16-.56,4.74,4.74,0,0,0-1.35-.19,3,3,0,0,0-1.76.43,1.36,1.36,0,0,0-.59,1.14,1.12,1.12,0,0,0,.34.87,2,2,0,0,0,.82.46c.33.1.78.21,1.37.33a11,11,0,0,1,1.57.38,2.46,2.46,0,0,1,1,.64,1.74,1.74,0,0,1,.42,1.24,2,2,0,0,1-.87,1.66,4,4,0,0,1-2.43.62A6.12,6.12,0,0,1,370.91,246.47Z"/><path d="M56.93,387.47v.73H49.2V377h7.49v.74H50v4.42h6v.72H50v4.59Z"/><path d="M60.64,387.72a3.82,3.82,0,0,1-1.5-1.51,4.28,4.28,0,0,1-.55-2.18,4.33,4.33,0,0,1,.55-2.2,3.82,3.82,0,0,1,1.5-1.51,4.48,4.48,0,0,1,2.18-.53,4.23,4.23,0,0,1,1.83.39A3.27,3.27,0,0,1,66,381.32l-.59.44a2.86,2.86,0,0,0-1.11-.94,3.35,3.35,0,0,0-1.46-.31,3.56,3.56,0,0,0-1.76.44,3.14,3.14,0,0,0-1.21,1.24,4.07,4.07,0,0,0,0,3.68,3.21,3.21,0,0,0,1.21,1.24,3.56,3.56,0,0,0,1.76.44,3.5,3.5,0,0,0,1.46-.31,2.86,2.86,0,0,0,1.11-.94l.59.43a3.29,3.29,0,0,1-1.33,1.15,4.23,4.23,0,0,1-1.83.39A4.28,4.28,0,0,1,60.64,387.72Z"/><path d="M69.37,387.72a3.89,3.89,0,0,1-1.5-1.51,4.38,4.38,0,0,1-.54-2.18,4.44,4.44,0,0,1,.54-2.19,4,4,0,0,1,1.5-1.51,4.49,4.49,0,0,1,4.27,0,4,4,0,0,1,1.5,1.51,4.44,4.44,0,0,1,.54,2.19,4.38,4.38,0,0,1-.54,2.18,3.89,3.89,0,0,1-1.5,1.51,4.42,4.42,0,0,1-4.27,0Zm3.86-.62a3.19,3.19,0,0,0,1.19-1.25,3.63,3.63,0,0,0,.44-1.82,3.7,3.7,0,0,0-.44-1.83A3.16,3.16,0,0,0,73.23,381a3.33,3.33,0,0,0-1.73-.45,3.26,3.26,0,0,0-1.71.45,3.21,3.21,0,0,0-1.21,1.24,3.8,3.8,0,0,0-.43,1.83,3.74,3.74,0,0,0,.43,1.82,3.26,3.26,0,0,0,2.92,1.7A3.33,3.33,0,0,0,73.23,387.1Z"/><path d="M91,380.7a3.61,3.61,0,0,1,.89,2.62v4.88h-.8v-4.81a3,3,0,0,0-.69-2.15,2.5,2.5,0,0,0-1.92-.73,2.89,2.89,0,0,0-2.23.88,3.31,3.31,0,0,0-.83,2.37v4.44h-.8v-4.81a3,3,0,0,0-.68-2.15,2.5,2.5,0,0,0-1.92-.73,2.92,2.92,0,0,0-2.24.88,3.35,3.35,0,0,0-.82,2.37v4.44h-.8v-8.35h.77v1.79a3.08,3.08,0,0,1,1.24-1.36,3.73,3.73,0,0,1,2-.49,3.49,3.49,0,0,1,1.93.51,2.85,2.85,0,0,1,1.13,1.5,3.29,3.29,0,0,1,1.3-1.47,3.89,3.89,0,0,1,2.07-.54A3.23,3.23,0,0,1,91,380.7Z"/><path d="M108,380.7a3.57,3.57,0,0,1,.89,2.62v4.88h-.8v-4.81a3,3,0,0,0-.69-2.15,2.47,2.47,0,0,0-1.92-.73,2.91,2.91,0,0,0-2.23.88,3.3,3.3,0,0,0-.82,2.37v4.44h-.8v-4.81a3,3,0,0,0-.69-2.15,2.5,2.5,0,0,0-1.92-.73,2.89,2.89,0,0,0-2.23.88,3.31,3.31,0,0,0-.83,2.37v4.44h-.8v-8.35H96v1.79a3.08,3.08,0,0,1,1.24-1.36,3.75,3.75,0,0,1,2-.49,3.49,3.49,0,0,1,1.93.51,2.8,2.8,0,0,1,1.13,1.5,3.35,3.35,0,0,1,1.3-1.47,3.92,3.92,0,0,1,2.07-.54A3.23,3.23,0,0,1,108,380.7Z"/><path d="M119.28,384.22H112.1a3.49,3.49,0,0,0,.49,1.74,3.23,3.23,0,0,0,1.26,1.17,3.74,3.74,0,0,0,1.78.42,3.82,3.82,0,0,0,1.52-.3,2.93,2.93,0,0,0,1.15-.87l.47.53a3.58,3.58,0,0,1-1.37,1,4.56,4.56,0,0,1-1.78.35,4.42,4.42,0,0,1-2.23-.55,3.94,3.94,0,0,1-1.53-1.5,4.39,4.39,0,0,1-.55-2.19,4.66,4.66,0,0,1,.52-2.19,4,4,0,0,1,5.52-1.52,3.82,3.82,0,0,1,1.43,1.5,4.59,4.59,0,0,1,.52,2.18Zm-5.55-3.34A3,3,0,0,0,112.6,382a3.71,3.71,0,0,0-.49,1.61h6.4A3.3,3.3,0,0,0,118,382a3.16,3.16,0,0,0-1.13-1.11,3.38,3.38,0,0,0-3.17,0Z"/><path d="M123.74,380.28a3.79,3.79,0,0,1,2-.49v.78h-.19a2.78,2.78,0,0,0-2.18.87,3.5,3.5,0,0,0-.78,2.42v4.35h-.8v-8.35h.76v1.83A2.9,2.9,0,0,1,123.74,380.28Z"/><path d="M129,387.72a3.82,3.82,0,0,1-1.5-1.51,4.38,4.38,0,0,1-.55-2.18,4.43,4.43,0,0,1,.55-2.2,3.82,3.82,0,0,1,1.5-1.51,4.48,4.48,0,0,1,2.18-.53,4.23,4.23,0,0,1,1.83.39,3.36,3.36,0,0,1,1.34,1.14l-.6.44a2.79,2.79,0,0,0-1.11-.94,3.35,3.35,0,0,0-1.46-.31,3.5,3.5,0,0,0-1.75.44,3.1,3.1,0,0,0-1.22,1.24,4.07,4.07,0,0,0,0,3.68,3.16,3.16,0,0,0,1.22,1.24,3.65,3.65,0,0,0,3.21.13,2.79,2.79,0,0,0,1.11-.94l.6.43a3.39,3.39,0,0,1-1.34,1.15,4.23,4.23,0,0,1-1.83.39A4.28,4.28,0,0,1,129,387.72Z"/><path d="M143.65,384.22h-7.19A3.61,3.61,0,0,0,137,386a3.23,3.23,0,0,0,1.26,1.17,3.71,3.71,0,0,0,1.78.42,3.77,3.77,0,0,0,1.51-.3,3,3,0,0,0,1.16-.87l.47.53a3.66,3.66,0,0,1-1.37,1,4.61,4.61,0,0,1-1.79.35,4.4,4.4,0,0,1-2.22-.55,3.94,3.94,0,0,1-1.53-1.5,4.29,4.29,0,0,1-.55-2.19,4.54,4.54,0,0,1,.52-2.19,3.83,3.83,0,0,1,3.48-2,4,4,0,0,1,2,.53,3.8,3.8,0,0,1,1.42,1.5,4.48,4.48,0,0,1,.52,2.18Zm-5.55-3.34A3,3,0,0,0,137,382a3.58,3.58,0,0,0-.49,1.61h6.4a3.3,3.3,0,0,0-.48-1.6,3.26,3.26,0,0,0-4.3-1.12Z"/><path class="cls-1" d="M237.92,341.06a5.73,5.73,0,0,1-5.74,5.73H186.29a5.73,5.73,0,0,1-5.74-5.73V300.89a5.74,5.74,0,0,1,5.74-5.73h14.34l5.74,8.6h25.81a5.74,5.74,0,0,1,5.74,5.74Z"/><path d="M165.74,377.74v4.78h6v.74h-6v4.94h-.82V377h7.49v.74Z"/><path d="M174.54,377.64a.62.62,0,0,1-.19-.46.6.6,0,0,1,.19-.46.63.63,0,0,1,.46-.2.67.67,0,0,1,.47.19.58.58,0,0,1,.19.45.65.65,0,0,1-.66.66A.65.65,0,0,1,174.54,377.64Zm.06,2.21h.8v8.35h-.8Z"/><path d="M178.78,376.33h.8V388.2h-.8Z"/><path d="M190,384.22h-7.18a3.49,3.49,0,0,0,.49,1.74,3.23,3.23,0,0,0,1.26,1.17,3.74,3.74,0,0,0,1.78.42,3.82,3.82,0,0,0,1.52-.3,3,3,0,0,0,1.16-.87l.46.53a3.58,3.58,0,0,1-1.37,1,4.56,4.56,0,0,1-1.78.35,4.44,4.44,0,0,1-2.23-.55,3.85,3.85,0,0,1-1.52-1.5A4.3,4.3,0,0,1,182,384a4.66,4.66,0,0,1,.52-2.19,4,4,0,0,1,5.52-1.52,3.82,3.82,0,0,1,1.43,1.5A4.59,4.59,0,0,1,190,384Zm-5.55-3.34a3,3,0,0,0-1.13,1.11,3.71,3.71,0,0,0-.49,1.61h6.4a3.3,3.3,0,0,0-.48-1.6,3.08,3.08,0,0,0-1.13-1.11,3.38,3.38,0,0,0-3.17,0Z"/><path d="M197.48,387.86a4.45,4.45,0,0,1-1.74-1.1l.37-.6a4.31,4.31,0,0,0,1.59,1,5.75,5.75,0,0,0,2.1.39,4.05,4.05,0,0,0,2.42-.6,1.92,1.92,0,0,0,.82-1.59,1.66,1.66,0,0,0-.44-1.2,2.75,2.75,0,0,0-1.07-.69,14.18,14.18,0,0,0-1.73-.49,16.36,16.36,0,0,1-2-.59,3.26,3.26,0,0,1-1.27-.89,2.41,2.41,0,0,1-.52-1.61,2.76,2.76,0,0,1,.44-1.5,2.89,2.89,0,0,1,1.32-1.08,5.49,5.49,0,0,1,2.21-.4,6,6,0,0,1,1.83.28,5.42,5.42,0,0,1,1.55.73l-.31.66a5.06,5.06,0,0,0-1.48-.71,5.53,5.53,0,0,0-1.59-.24,3.74,3.74,0,0,0-2.35.63,2,2,0,0,0-.8,1.61,1.62,1.62,0,0,0,.43,1.2,2.91,2.91,0,0,0,1.07.69,16.16,16.16,0,0,0,1.75.51,16.12,16.12,0,0,1,2,.6,3.14,3.14,0,0,1,1.25.87,2.26,2.26,0,0,1,.52,1.57,2.6,2.6,0,0,1-.44,1.49,2.9,2.9,0,0,1-1.35,1.07,5.51,5.51,0,0,1-2.24.4A6.56,6.56,0,0,1,197.48,387.86Z"/><path d="M210.51,387.68a2.27,2.27,0,0,1-.76.44,3,3,0,0,1-.95.15,2.08,2.08,0,0,1-2.28-2.27v-5.46H205v-.69h1.53V378h.8v1.82H210v.69h-2.66v5.38a1.75,1.75,0,0,0,.4,1.24,1.5,1.5,0,0,0,1.16.42,1.84,1.84,0,0,0,1.29-.46Z"/><path d="M213.56,387.72a3.82,3.82,0,0,1-1.5-1.51,4.38,4.38,0,0,1-.54-2.18,4.44,4.44,0,0,1,.54-2.19,4,4,0,0,1,1.5-1.51,4.22,4.22,0,0,1,2.13-.54,4.28,4.28,0,0,1,2.14.54,4,4,0,0,1,1.49,1.51,4.34,4.34,0,0,1,.55,2.19,4.28,4.28,0,0,1-.55,2.18,3.86,3.86,0,0,1-1.49,1.51,4.19,4.19,0,0,1-2.14.55A4.12,4.12,0,0,1,213.56,387.72Zm3.85-.62a3.14,3.14,0,0,0,1.2-1.25,3.63,3.63,0,0,0,.44-1.82,3.7,3.7,0,0,0-.44-1.83,3.11,3.11,0,0,0-1.2-1.24,3.51,3.51,0,0,0-3.44,0,3.18,3.18,0,0,0-1.2,1.24,3.81,3.81,0,0,0-.44,1.83,3.74,3.74,0,0,0,.44,1.82,3.21,3.21,0,0,0,1.2,1.25,3.51,3.51,0,0,0,3.44,0Z"/><path d="M224.32,380.28a3.73,3.73,0,0,1,2-.49v.78h-.19a2.78,2.78,0,0,0-2.18.87,3.5,3.5,0,0,0-.78,2.42v4.35h-.8v-8.35h.77v1.83A2.8,2.8,0,0,1,224.32,380.28Z"/><path d="M233.71,380.58a3.08,3.08,0,0,1,.83,2.33v5.29h-.77v-1.48a2.69,2.69,0,0,1-1.17,1.14,3.88,3.88,0,0,1-1.84.41,3.39,3.39,0,0,1-2.2-.66,2.14,2.14,0,0,1-.8-1.73,2.1,2.1,0,0,1,.74-1.68,3.55,3.55,0,0,1,2.38-.65h2.86v-.67a2.37,2.37,0,0,0-.63-1.78,2.59,2.59,0,0,0-1.85-.61,4.48,4.48,0,0,0-1.59.29,3.92,3.92,0,0,0-1.29.77L228,381a4.62,4.62,0,0,1,1.5-.87,5.43,5.43,0,0,1,1.84-.31A3.33,3.33,0,0,1,233.71,380.58Zm-1.07,6.55a2.91,2.91,0,0,0,1.1-1.39v-1.57h-2.85a2.82,2.82,0,0,0-1.78.45,1.49,1.49,0,0,0-.55,1.23,1.54,1.54,0,0,0,.6,1.29,2.73,2.73,0,0,0,1.72.47A3.11,3.11,0,0,0,232.64,387.13Z"/><path d="M245.37,379.85v7.46a4.12,4.12,0,0,1-1,3.07,4.17,4.17,0,0,1-3,1,6.76,6.76,0,0,1-2.17-.35,4.12,4.12,0,0,1-1.65-1l.43-.6a4.44,4.44,0,0,0,1.51.89,5.25,5.25,0,0,0,1.87.32,3.35,3.35,0,0,0,2.46-.79,3.31,3.31,0,0,0,.8-2.46V386a3.54,3.54,0,0,1-1.42,1.4,4.23,4.23,0,0,1-2.05.5,4.3,4.3,0,0,1-2.12-.52,3.94,3.94,0,0,1-1.5-1.45,4.33,4.33,0,0,1,0-4.19,3.84,3.84,0,0,1,1.5-1.44,4.4,4.4,0,0,1,2.12-.51,4.24,4.24,0,0,1,2.08.51,3.46,3.46,0,0,1,1.42,1.44v-1.89Zm-2.45,6.91a3.13,3.13,0,0,0,1.23-1.19,3.62,3.62,0,0,0,0-3.46,3.11,3.11,0,0,0-1.23-1.18,3.66,3.66,0,0,0-1.76-.42,3.62,3.62,0,0,0-1.75.42,3.05,3.05,0,0,0-1.21,1.18,3.62,3.62,0,0,0,0,3.46,3.08,3.08,0,0,0,1.21,1.19,3.62,3.62,0,0,0,1.75.42A3.66,3.66,0,0,0,242.92,386.76Z"/><path d="M255.82,384.22h-7.18a3.49,3.49,0,0,0,.49,1.74,3.23,3.23,0,0,0,1.26,1.17,4,4,0,0,0,3.29.12,3,3,0,0,0,1.16-.87l.47.53a3.58,3.58,0,0,1-1.37,1,4.56,4.56,0,0,1-1.78.35,4.42,4.42,0,0,1-2.23-.55,3.94,3.94,0,0,1-1.53-1.5,4.39,4.39,0,0,1-.55-2.19,4.54,4.54,0,0,1,.52-2.19,4,4,0,0,1,1.43-1.51,4.18,4.18,0,0,1,4.09,0,3.9,3.9,0,0,1,1.43,1.5,4.59,4.59,0,0,1,.52,2.18Zm-5.55-3.34a3,3,0,0,0-1.13,1.11,3.58,3.58,0,0,0-.49,1.61h6.4a3.3,3.3,0,0,0-.48-1.6,3.16,3.16,0,0,0-1.13-1.11,3.38,3.38,0,0,0-3.17,0Z"/><line class="cls-1" x1="330.44" y1="350.8" x2="330.44" y2="316.99"/><line class="cls-1" x1="350.72" y1="350.8" x2="350.72" y2="296.71"/><line class="cls-1" x1="310.16" y1="350.8" x2="310.16" y2="337.28"/><path d="M303.67,385.05h-6.5l-1.42,3.16h-.88L300,377h.81L306,388.21h-.89Zm-.31-.68-2.94-6.47-2.93,6.47Z"/><path d="M314.32,380.7a3.55,3.55,0,0,1,.91,2.63v4.88h-.8v-4.82a2.93,2.93,0,0,0-.71-2.14,2.6,2.6,0,0,0-2-.74,3.05,3.05,0,0,0-2.32.88,3.25,3.25,0,0,0-.85,2.37v4.45h-.8v-8.36h.77v1.81a3.16,3.16,0,0,1,1.29-1.37,3.86,3.86,0,0,1,2-.5A3.34,3.34,0,0,1,314.32,380.7Z"/><path d="M323.73,380.58a3.08,3.08,0,0,1,.83,2.33v5.3h-.77v-1.49a2.69,2.69,0,0,1-1.17,1.14,3.88,3.88,0,0,1-1.84.41,3.39,3.39,0,0,1-2.2-.66,2.27,2.27,0,0,1-.06-3.41,3.55,3.55,0,0,1,2.38-.65h2.86v-.67a2.37,2.37,0,0,0-.63-1.78,2.59,2.59,0,0,0-1.85-.61,4.48,4.48,0,0,0-1.59.29,3.92,3.92,0,0,0-1.29.77L318,381a4.62,4.62,0,0,1,1.5-.87,5.43,5.43,0,0,1,1.84-.31A3.33,3.33,0,0,1,323.73,380.58Zm-1.07,6.55a2.85,2.85,0,0,0,1.1-1.39v-1.57h-2.85a2.82,2.82,0,0,0-1.78.45,1.49,1.49,0,0,0-.55,1.23,1.54,1.54,0,0,0,.6,1.29,2.73,2.73,0,0,0,1.72.47A3.11,3.11,0,0,0,322.66,387.13Z"/><path d="M327.86,376.33h.8v11.88h-.8Z"/><path d="M338.74,379.85l-4.29,9.49a3.75,3.75,0,0,1-1.11,1.57,2.45,2.45,0,0,1-1.5.46,3,3,0,0,1-1.08-.19,2.29,2.29,0,0,1-.86-.56l.4-.61a2.1,2.1,0,0,0,1.56.66,1.63,1.63,0,0,0,1-.34,3.14,3.14,0,0,0,.8-1.15l.44-1-3.76-8.32h.85l3.35,7.48,3.34-7.48Z"/><path d="M344.86,387.68a2,2,0,0,1-.76.44,3,3,0,0,1-1,.15,2.27,2.27,0,0,1-1.68-.6,2.3,2.3,0,0,1-.59-1.67v-5.46h-1.54v-.69h1.54V378h.8v1.82h2.66v.69h-2.66v5.38a1.77,1.77,0,0,0,.39,1.24,1.51,1.51,0,0,0,1.16.42,1.85,1.85,0,0,0,1.3-.46Z"/><path d="M347,377.64a.66.66,0,0,1-.19-.46.65.65,0,0,1,.66-.65.63.63,0,0,1,.46.18.6.6,0,0,1,.2.46.63.63,0,0,1-.2.46.6.6,0,0,1-.46.19A.67.67,0,0,1,347,377.64Zm.07,2.21h.8v8.36h-.8Z"/><path d="M352.4,387.72a3.82,3.82,0,0,1-1.5-1.51,4.28,4.28,0,0,1-.55-2.18,4.33,4.33,0,0,1,.55-2.2,3.73,3.73,0,0,1,1.5-1.5,4.38,4.38,0,0,1,2.18-.54,4.23,4.23,0,0,1,1.83.39,3.22,3.22,0,0,1,1.33,1.15l-.59.43a2.86,2.86,0,0,0-1.11-.94,3.35,3.35,0,0,0-1.46-.31,3.56,3.56,0,0,0-1.76.44,3.14,3.14,0,0,0-1.21,1.24,4.07,4.07,0,0,0,0,3.68,3.14,3.14,0,0,0,1.21,1.24,3.56,3.56,0,0,0,1.76.44,3.35,3.35,0,0,0,1.46-.31,2.86,2.86,0,0,0,1.11-.94l.59.43a3.29,3.29,0,0,1-1.33,1.15,4.23,4.23,0,0,1-1.83.39A4.28,4.28,0,0,1,352.4,387.72Z"/><path d="M360.34,388a3.92,3.92,0,0,1-1.43-.76l.37-.64a4.33,4.33,0,0,0,1.32.72,5,5,0,0,0,1.69.29,3.28,3.28,0,0,0,1.86-.42,1.33,1.33,0,0,0,.6-1.15,1.07,1.07,0,0,0-.33-.83,1.8,1.8,0,0,0-.8-.45c-.32-.1-.77-.2-1.33-.31a10,10,0,0,1-1.6-.38,2.49,2.49,0,0,1-1-.67,1.8,1.8,0,0,1-.43-1.28,2,2,0,0,1,.82-1.64,3.66,3.66,0,0,1,2.34-.65A5.7,5.7,0,0,1,364,380a3.91,3.91,0,0,1,1.28.6l-.37.64a3.52,3.52,0,0,0-1.17-.56,4.63,4.63,0,0,0-1.34-.2,3,3,0,0,0-1.76.43,1.34,1.34,0,0,0-.59,1.14,1.15,1.15,0,0,0,.33.87,2.12,2.12,0,0,0,.83.47,12.83,12.83,0,0,0,1.36.32,12.33,12.33,0,0,1,1.58.38,2.38,2.38,0,0,1,1,.65,1.77,1.77,0,0,1,.41,1.23,2,2,0,0,1-.86,1.67,4.16,4.16,0,0,1-2.43.62A5.77,5.77,0,0,1,360.34,388Z"/></svg>