<svg id="Layer_1" data-name="Layer 1" xmlns="http://www.w3.org/2000/svg" viewBox="0 0 400 400"><defs><style>.cls-1{fill:none;stroke:#fff;stroke-linecap:round;stroke-linejoin:round;stroke-width:2px;}.cls-2{fill:#fff;}</style></defs><title>stack</title><path class="cls-1" d="M182.8,16.22h29.4a5.89,5.89,0,0,1,5.89,5.89V69.24a5.89,5.89,0,0,1-5.89,5.89H182.8a5.89,5.89,0,0,1-5.88-5.89V22.11A5.89,5.89,0,0,1,182.8,16.22Z"/><line class="cls-1" x1="197.5" y1="63.35" x2="197.5" y2="63.35"/><path class="cls-1" d="M174,165.4H221a5.89,5.89,0,0,1,5.88,5.9v11.78A5.89,5.89,0,0,1,221,189H174a5.89,5.89,0,0,1-5.88-5.89V171.3A5.89,5.89,0,0,1,174,165.4Z"/><path class="cls-1" d="M174,200.75H221a5.89,5.89,0,0,1,5.88,5.89v11.78a5.89,5.89,0,0,1-5.88,5.89H174a5.88,5.88,0,0,1-5.88-5.89V206.64A5.89,5.89,0,0,1,174,200.75Z"/><line class="cls-1" x1="179.86" y1="177.19" x2="179.86" y2="177.19"/><line class="cls-1" x1="179.86" y1="212.53" x2="179.86" y2="212.53"/><path class="cls-1" d="M28.62,16.22H80.89a6.54,6.54,0,0,1,6.54,6.54V55.49A6.54,6.54,0,0,1,80.89,62H28.62a6.54,6.54,0,0,1-6.54-6.55V22.76A6.54,6.54,0,0,1,28.62,16.22Z"/><line class="cls-1" x1="41.69" y1="75.13" x2="67.83" y2="75.13"/><line class="cls-1" x1="54.76" y1="62.04" x2="54.76" y2="75.13"/><ellipse class="cls-1" cx="199.08" cy="317.03" rx="25.92" ry="8.65"/><path class="cls-1" d="M225,337.22c0,4.79-11.52,8.66-25.91,8.66s-25.92-3.87-25.92-8.66"/><path class="cls-1" d="M173.16,317v40.38c0,4.79,11.52,8.66,25.92,8.66S225,362.2,225,357.41V317"/><line class="cls-1" x1="374.1" y1="45.67" x2="309.89" y2="45.67"/><path class="cls-1" d="M321,23.52,309.89,45.67V65a6.43,6.43,0,0,0,6.42,6.43h51.37A6.42,6.42,0,0,0,374.1,65V45.67L363,23.52A6.43,6.43,0,0,0,357.28,20H326.71A6.4,6.4,0,0,0,321,23.52Z"/><line class="cls-1" x1="322.73" y1="58.54" x2="322.73" y2="58.54"/><line class="cls-1" x1="335.58" y1="58.54" x2="335.58" y2="58.54"/><path class="cls-2" d="M53.17,82.17l-3.79,11.2h-.86L45.05,83.32,41.57,93.37h-.86l-3.8-11.2h.86l3.4,10.08,3.5-10.08h.78l3.48,10.09,3.44-10.09Z"/><path class="cls-2" d="M61.66,89.38H54.49a3.5,3.5,0,0,0,.5,1.74,3.13,3.13,0,0,0,1.25,1.17,4,4,0,0,0,3.29.12,2.79,2.79,0,0,0,1.16-.87l.46.53a3.54,3.54,0,0,1-1.36,1,4.56,4.56,0,0,1-1.78.35,4.5,4.5,0,0,1-2.22-.54,4,4,0,0,1-1.53-1.51,4.29,4.29,0,0,1-.55-2.19A4.48,4.48,0,0,1,54.23,87a3.88,3.88,0,0,1,1.43-1.52,3.94,3.94,0,0,1,2-.54,3.89,3.89,0,0,1,2,.54A3.71,3.71,0,0,1,61.16,87a4.48,4.48,0,0,1,.52,2.18Zm-5.54-3.33A3,3,0,0,0,55,87.15a3.46,3.46,0,0,0-.49,1.61H60.9a3.3,3.3,0,0,0-.48-1.6,3.11,3.11,0,0,0-2.72-1.51A3.12,3.12,0,0,0,56.12,86.05Z"/><path class="cls-2" d="M70.45,85.49A3.75,3.75,0,0,1,71.93,87a4.56,4.56,0,0,1,.53,2.2,4.49,4.49,0,0,1-.53,2.19,4,4,0,0,1-1.48,1.51,4.17,4.17,0,0,1-2.11.54,3.87,3.87,0,0,1-2-.54,3.6,3.6,0,0,1-1.4-1.49v2h-.76V81.49H65v5.43a3.66,3.66,0,0,1,1.39-1.45,3.9,3.9,0,0,1,2-.52A4.17,4.17,0,0,1,70.45,85.49ZM70,92.26A3.14,3.14,0,0,0,71.22,91a4,4,0,0,0,0-3.64A3.14,3.14,0,0,0,70,86.12a3.36,3.36,0,0,0-1.73-.45,3.26,3.26,0,0,0-1.71.45,3.14,3.14,0,0,0-1.2,1.25,4,4,0,0,0,0,3.64,3.14,3.14,0,0,0,1.2,1.25,3.26,3.26,0,0,0,1.71.45A3.36,3.36,0,0,0,70,92.26Z"/><path class="cls-2" d="M184.68,93.37V83.78L180,91.88h-.4l-4.68-8.07v9.56h-.8V82.17h.69l5,8.65,5-8.65h.67v11.2Z"/><path class="cls-2" d="M190.25,92.89a4,4,0,0,1-1.49-1.52,4.6,4.6,0,0,1,0-4.36,4,4,0,0,1,1.49-1.52,4.22,4.22,0,0,1,2.13-.54,4.28,4.28,0,0,1,2.14.54A4,4,0,0,1,196,87a4.67,4.67,0,0,1,0,4.36,4,4,0,0,1-1.49,1.52,4.28,4.28,0,0,1-2.14.54A4.22,4.22,0,0,1,190.25,92.89Zm3.85-.63A3.14,3.14,0,0,0,195.3,91a4,4,0,0,0,0-3.64,3.14,3.14,0,0,0-1.2-1.25,3.32,3.32,0,0,0-1.72-.45,3.26,3.26,0,0,0-1.71.45,3.14,3.14,0,0,0-1.2,1.25,4,4,0,0,0,0,3.64,3.14,3.14,0,0,0,1.2,1.25,3.26,3.26,0,0,0,1.71.45A3.32,3.32,0,0,0,194.1,92.26Z"/><path class="cls-2" d="M205.32,85.49A3.75,3.75,0,0,1,206.8,87a4.45,4.45,0,0,1,.53,2.2,4.38,4.38,0,0,1-.53,2.19,4,4,0,0,1-1.48,1.51,4.17,4.17,0,0,1-2.11.54,3.87,3.87,0,0,1-2-.54,3.6,3.6,0,0,1-1.4-1.49v2H199V81.49h.8v5.43a3.59,3.59,0,0,1,1.39-1.45,3.84,3.84,0,0,1,2-.52A4.17,4.17,0,0,1,205.32,85.49Zm-.43,6.77A3.23,3.23,0,0,0,206.1,91a4,4,0,0,0,0-3.64,3.23,3.23,0,0,0-1.21-1.25,3.36,3.36,0,0,0-1.73-.45,3.28,3.28,0,0,0-1.71.45,3.14,3.14,0,0,0-1.2,1.25,4,4,0,0,0,0,3.64,3.14,3.14,0,0,0,1.2,1.25,3.28,3.28,0,0,0,1.71.45A3.36,3.36,0,0,0,204.89,92.26Z"/><path class="cls-2" d="M209.75,82.8a.61.61,0,0,1-.2-.46.63.63,0,0,1,.2-.46.6.6,0,0,1,.46-.19.65.65,0,0,1,.46.18.59.59,0,0,1,.19.46.65.65,0,0,1-.65.65A.63.63,0,0,1,209.75,82.8Zm.06,2.21h.8v8.36h-.8Z"/><path class="cls-2" d="M214,81.49h.8V93.37H214Z"/><path class="cls-2" d="M225.19,89.38H218a3.6,3.6,0,0,0,.49,1.74,3.16,3.16,0,0,0,1.26,1.17,4,4,0,0,0,3.29.12,2.85,2.85,0,0,0,1.16-.87l.46.53a3.58,3.58,0,0,1-1.37,1,4.77,4.77,0,0,1-4-.19,4,4,0,0,1-1.52-1.51,4.29,4.29,0,0,1-.55-2.19,4.48,4.48,0,0,1,.52-2.18,3.81,3.81,0,0,1,1.43-1.52,4.12,4.12,0,0,1,4.08,0A3.78,3.78,0,0,1,224.69,87a4.59,4.59,0,0,1,.52,2.18Zm-5.54-3.33a3,3,0,0,0-1.13,1.1,3.57,3.57,0,0,0-.48,1.61h6.38a3.4,3.4,0,0,0-.47-1.6,3.11,3.11,0,0,0-2.72-1.51A3.09,3.09,0,0,0,219.65,86.05Z"/><path class="cls-2" d="M314.25,82.17v11.2h-.81V88H306v5.33h-.81V82.17H306v5.15h7.48V82.17Z"/><path class="cls-2" d="M323.08,85.74a3.06,3.06,0,0,1,.83,2.33v5.3h-.76V91.88A2.8,2.8,0,0,1,322,93a3.86,3.86,0,0,1-1.83.41,3.38,3.38,0,0,1-2.2-.66,2.25,2.25,0,0,1-.06-3.41,3.55,3.55,0,0,1,2.37-.65h2.86V88a2.37,2.37,0,0,0-.63-1.78,2.61,2.61,0,0,0-1.85-.61,4.52,4.52,0,0,0-1.59.29,4,4,0,0,0-1.28.77l-.4-.58a4.42,4.42,0,0,1,1.5-.87A5.37,5.37,0,0,1,320.7,85,3.29,3.29,0,0,1,323.08,85.74ZM322,92.29a2.91,2.91,0,0,0,1.1-1.39V89.33h-2.85a2.82,2.82,0,0,0-1.78.45,1.49,1.49,0,0,0-.55,1.23,1.52,1.52,0,0,0,.61,1.29,2.68,2.68,0,0,0,1.71.47A3.11,3.11,0,0,0,322,92.29Z"/><path class="cls-2" d="M329.17,85.44a3.73,3.73,0,0,1,2-.49v.78H331a2.76,2.76,0,0,0-2.17.87A3.46,3.46,0,0,0,328,89v4.36h-.79V85H328v1.83A2.9,2.9,0,0,1,329.17,85.44Z"/><path class="cls-2" d="M340.69,81.49V93.37h-.79v-2a3.54,3.54,0,0,1-1.39,1.5,3.9,3.9,0,0,1-2,.53,4.17,4.17,0,0,1-2.11-.54,4,4,0,0,1-1.48-1.51,4.39,4.39,0,0,1-.54-2.19,4.45,4.45,0,0,1,.54-2.2,3.75,3.75,0,0,1,1.48-1.5,4.17,4.17,0,0,1,2.11-.54,3.86,3.86,0,0,1,2,.53,3.74,3.74,0,0,1,1.4,1.47V81.49Zm-2.44,10.77a3.14,3.14,0,0,0,1.2-1.25,4,4,0,0,0,0-3.64,3.14,3.14,0,0,0-1.2-1.25,3.29,3.29,0,0,0-1.72-.45,3.26,3.26,0,0,0-1.71.45,3.14,3.14,0,0,0-1.2,1.25,4,4,0,0,0,0,3.64,3.14,3.14,0,0,0,1.2,1.25,3.26,3.26,0,0,0,1.71.45A3.29,3.29,0,0,0,338.25,92.26Z"/><path class="cls-2" d="M356,85l-3.16,8.36h-.75l-2.81-7.25-2.83,7.25h-.73L342.52,85h.77l2.78,7.46L348.91,85h.69l2.83,7.44L355.24,85Z"/><path class="cls-2" d="M362.76,85.74a3.06,3.06,0,0,1,.83,2.33v5.3h-.76V91.88A2.8,2.8,0,0,1,361.66,93a3.88,3.88,0,0,1-1.84.41,3.35,3.35,0,0,1-2.19-.66,2.1,2.1,0,0,1-.81-1.72,2.14,2.14,0,0,1,.74-1.69,3.59,3.59,0,0,1,2.37-.65h2.86V88a2.37,2.37,0,0,0-.63-1.78,2.57,2.57,0,0,0-1.84-.61,4.44,4.44,0,0,0-1.59.29,3.92,3.92,0,0,0-1.29.77l-.4-.58a4.62,4.62,0,0,1,1.5-.87,5.43,5.43,0,0,1,1.84-.31A3.3,3.3,0,0,1,362.76,85.74Zm-1.06,6.55a2.89,2.89,0,0,0,1.09-1.39V89.33H360a2.82,2.82,0,0,0-1.78.45,1.49,1.49,0,0,0-.55,1.23,1.52,1.52,0,0,0,.61,1.29,2.67,2.67,0,0,0,1.7.47A3.14,3.14,0,0,0,361.7,92.29Z"/><path class="cls-2" d="M368.85,85.44a3.73,3.73,0,0,1,2-.49v.78h-.19a2.8,2.8,0,0,0-2.18.87,3.5,3.5,0,0,0-.78,2.42v4.36h-.8V85h.77v1.83A2.8,2.8,0,0,1,368.85,85.44Z"/><path class="cls-2" d="M380,89.38h-7.18a3.61,3.61,0,0,0,.5,1.74,3.2,3.2,0,0,0,1.25,1.17,4,4,0,0,0,3.29.12,2.79,2.79,0,0,0,1.16-.87l.47.53a3.66,3.66,0,0,1-1.37,1,4.56,4.56,0,0,1-1.78.35,4.5,4.5,0,0,1-2.22-.54,4,4,0,0,1-1.53-1.51,4.39,4.39,0,0,1-.55-2.19,4.48,4.48,0,0,1,.52-2.18A3.88,3.88,0,0,1,374,85.49a3.94,3.94,0,0,1,2-.54,3.89,3.89,0,0,1,2,.54A3.71,3.71,0,0,1,379.49,87a4.48,4.48,0,0,1,.52,2.18Zm-5.55-3.33a3,3,0,0,0-1.12,1.1,3.58,3.58,0,0,0-.49,1.61h6.39a3.3,3.3,0,0,0-.48-1.6A3.08,3.08,0,0,0,376,85.65,3.12,3.12,0,0,0,374.45,86.05Z"/><path class="cls-2" d="M176.71,240.05A4.49,4.49,0,0,1,175,239l.37-.6a4.31,4.31,0,0,0,1.59,1,5.68,5.68,0,0,0,2.1.39,4,4,0,0,0,2.41-.6,1.91,1.91,0,0,0,.81-1.59,1.65,1.65,0,0,0-.43-1.2,2.75,2.75,0,0,0-1.07-.69,14.48,14.48,0,0,0-1.72-.49,17.19,17.19,0,0,1-2-.59,3.3,3.3,0,0,1-1.26-.89,2.41,2.41,0,0,1-.52-1.61,2.76,2.76,0,0,1,.44-1.5,2.91,2.91,0,0,1,1.31-1.08,5.51,5.51,0,0,1,2.22-.4,6,6,0,0,1,1.82.28,5.42,5.42,0,0,1,1.55.73l-.31.66a5.19,5.19,0,0,0-1.48-.71,5.46,5.46,0,0,0-1.58-.24,3.72,3.72,0,0,0-2.35.63,1.92,1.92,0,0,0-.8,1.61,1.62,1.62,0,0,0,.43,1.2,2.83,2.83,0,0,0,1.07.69,16.58,16.58,0,0,0,1.74.51,16.12,16.12,0,0,1,2,.6,3.21,3.21,0,0,1,1.25.87,2.26,2.26,0,0,1,.52,1.57,2.68,2.68,0,0,1-.44,1.49,2.9,2.9,0,0,1-1.35,1.07,5.51,5.51,0,0,1-2.24.4A6.56,6.56,0,0,1,176.71,240.05Z"/><path class="cls-2" d="M192.63,236.41h-7.17a3.49,3.49,0,0,0,.49,1.74,3.23,3.23,0,0,0,1.26,1.17,3.71,3.71,0,0,0,1.78.42,3.8,3.8,0,0,0,1.51-.3,3,3,0,0,0,1.16-.87l.46.53a3.58,3.58,0,0,1-1.37,1,4.52,4.52,0,0,1-1.78.35,4.4,4.4,0,0,1-2.22-.55,3.85,3.85,0,0,1-1.52-1.5,4.29,4.29,0,0,1-.55-2.19,4.54,4.54,0,0,1,.52-2.19,3.9,3.9,0,0,1,1.42-1.51,4,4,0,0,1,2-.54,4,4,0,0,1,2,.53,3.87,3.87,0,0,1,1.42,1.5,4.59,4.59,0,0,1,.52,2.18Zm-5.54-3.34a3,3,0,0,0-1.13,1.11,3.71,3.71,0,0,0-.49,1.61h6.39a3.3,3.3,0,0,0-.48-1.6,3.08,3.08,0,0,0-1.13-1.11,3.22,3.22,0,0,0-1.58-.4A3.19,3.19,0,0,0,187.09,233.07Z"/><path class="cls-2" d="M197.09,232.47a3.73,3.73,0,0,1,2-.49v.78h-.19a2.78,2.78,0,0,0-2.18.87,3.5,3.5,0,0,0-.78,2.42v4.35h-.8V232h.77v1.83A2.8,2.8,0,0,1,197.09,232.47Z"/><path class="cls-2" d="M208.35,232l-3.77,8.35h-.82L200,232h.85l3.32,7.47,3.35-7.47Z"/><path class="cls-2" d="M216.89,236.41h-7.17a3.5,3.5,0,0,0,.5,1.74,3.2,3.2,0,0,0,1.25,1.17,4,4,0,0,0,3.29.12,3,3,0,0,0,1.16-.87l.46.53a3.62,3.62,0,0,1-1.36,1,4.59,4.59,0,0,1-1.78.35,4.38,4.38,0,0,1-2.22-.55,3.94,3.94,0,0,1-1.53-1.5,4.29,4.29,0,0,1-.55-2.19,4.54,4.54,0,0,1,.52-2.19,3.85,3.85,0,0,1,1.43-1.51,3.91,3.91,0,0,1,2-.54,4,4,0,0,1,2,.53,3.87,3.87,0,0,1,1.42,1.5,4.48,4.48,0,0,1,.52,2.18Zm-5.54-3.34a3.08,3.08,0,0,0-1.13,1.11,3.57,3.57,0,0,0-.48,1.61h6.39a3.53,3.53,0,0,0-.48-1.6,3.26,3.26,0,0,0-4.3-1.12Z"/><path class="cls-2" d="M221.35,232.47a3.73,3.73,0,0,1,2-.49v.78h-.19a2.76,2.76,0,0,0-2.17.87,3.46,3.46,0,0,0-.79,2.42v4.35h-.79V232h.76v1.83A2.9,2.9,0,0,1,221.35,232.47Z"/><path class="cls-2" d="M161.75,369.39h4.42a6.46,6.46,0,0,1,3.09.72,5.26,5.26,0,0,1,2.1,2,5.92,5.92,0,0,1,0,5.77,5.23,5.23,0,0,1-2.1,2,6.46,6.46,0,0,1-3.09.72h-4.42Zm4.36,10.47a5.84,5.84,0,0,0,2.73-.62,4.38,4.38,0,0,0,1.82-1.72,5.3,5.3,0,0,0,0-5,4.38,4.38,0,0,0-1.82-1.72,5.72,5.72,0,0,0-2.73-.62h-3.55v9.73Z"/><path class="cls-2" d="M179.87,373a3,3,0,0,1,.84,2.33v5.29h-.77v-1.48a2.8,2.8,0,0,1-1.17,1.14,3.86,3.86,0,0,1-1.83.41,3.38,3.38,0,0,1-2.2-.66,2.25,2.25,0,0,1-.06-3.41,3.5,3.5,0,0,1,2.37-.65h2.86v-.67a2.37,2.37,0,0,0-.63-1.78,2.55,2.55,0,0,0-1.85-.61,4.52,4.52,0,0,0-1.59.29,4,4,0,0,0-1.28.77l-.4-.58a4.42,4.42,0,0,1,1.5-.87,5.37,5.37,0,0,1,1.83-.31A3.29,3.29,0,0,1,179.87,373Zm-1.06,6.55a2.91,2.91,0,0,0,1.1-1.39v-1.57h-2.85a2.82,2.82,0,0,0-1.78.45,1.66,1.66,0,0,0,.06,2.52,2.74,2.74,0,0,0,1.71.47A3.11,3.11,0,0,0,178.81,379.52Z"/><path class="cls-2" d="M188.13,380.07a2.09,2.09,0,0,1-.76.44,3,3,0,0,1-1,.15,2.23,2.23,0,0,1-1.67-.6,2.26,2.26,0,0,1-.59-1.67v-5.46h-1.54v-.69h1.54v-1.82H185v1.82h2.66v.69H185v5.38a1.75,1.75,0,0,0,.4,1.24,1.49,1.49,0,0,0,1.15.42,1.85,1.85,0,0,0,1.3-.46Z"/><path class="cls-2" d="M195.54,373a3,3,0,0,1,.83,2.33v5.29h-.76v-1.48a2.8,2.8,0,0,1-1.17,1.14,3.86,3.86,0,0,1-1.83.41,3.38,3.38,0,0,1-2.2-.66,2.26,2.26,0,0,1-.07-3.41,3.55,3.55,0,0,1,2.38-.65h2.86v-.67a2.37,2.37,0,0,0-.63-1.78,2.56,2.56,0,0,0-1.85-.61,4.52,4.52,0,0,0-1.59.29,4,4,0,0,0-1.28.77l-.4-.58a4.42,4.42,0,0,1,1.5-.87,5.37,5.37,0,0,1,1.83-.31A3.29,3.29,0,0,1,195.54,373Zm-1.06,6.55a2.91,2.91,0,0,0,1.1-1.39v-1.57h-2.85A2.82,2.82,0,0,0,191,377a1.49,1.49,0,0,0-.55,1.23,1.53,1.53,0,0,0,.61,1.29,2.74,2.74,0,0,0,1.71.47A3.11,3.11,0,0,0,194.48,379.52Z"/><path class="cls-2" d="M206,372.71a3.84,3.84,0,0,1,1.48,1.51,4.81,4.81,0,0,1,0,4.39,3.88,3.88,0,0,1-1.48,1.5,4.08,4.08,0,0,1-2.11.55,3.87,3.87,0,0,1-2-.54,3.66,3.66,0,0,1-1.4-1.49v2h-.76V368.72h.79v5.43a3.6,3.6,0,0,1,1.39-1.45,3.9,3.9,0,0,1,2-.52A4.26,4.26,0,0,1,206,372.71Zm-.43,6.78a3.14,3.14,0,0,0,1.2-1.25,3.63,3.63,0,0,0,.44-1.82,3.7,3.7,0,0,0-.44-1.83,3.11,3.11,0,0,0-1.2-1.24,3.36,3.36,0,0,0-1.73-.45,3.26,3.26,0,0,0-1.71.45,3.11,3.11,0,0,0-1.2,1.24,3.7,3.7,0,0,0-.44,1.83,3.63,3.63,0,0,0,.44,1.82,3.14,3.14,0,0,0,1.2,1.25,3.26,3.26,0,0,0,1.71.45A3.36,3.36,0,0,0,205.53,379.49Z"/><path class="cls-2" d="M215.61,373a3.08,3.08,0,0,1,.83,2.33v5.29h-.77v-1.48a2.74,2.74,0,0,1-1.17,1.14,3.86,3.86,0,0,1-1.83.41,3.38,3.38,0,0,1-2.2-.66,2.25,2.25,0,0,1-.06-3.41,3.5,3.5,0,0,1,2.37-.65h2.86v-.67a2.37,2.37,0,0,0-.63-1.78,2.55,2.55,0,0,0-1.85-.61,4.52,4.52,0,0,0-1.59.29,4,4,0,0,0-1.28.77l-.4-.58a4.42,4.42,0,0,1,1.5-.87,5.39,5.39,0,0,1,1.84-.31A3.32,3.32,0,0,1,215.61,373Zm-1.07,6.55a2.91,2.91,0,0,0,1.1-1.39v-1.57H212.8A2.83,2.83,0,0,0,211,377a1.52,1.52,0,0,0-.55,1.23,1.56,1.56,0,0,0,.61,1.29,2.74,2.74,0,0,0,1.71.47A3.11,3.11,0,0,0,214.54,379.52Z"/><path class="cls-2" d="M219.92,380.35a3.87,3.87,0,0,1-1.42-.76l.36-.64a4.69,4.69,0,0,0,1.32.72,5,5,0,0,0,1.69.28,3.29,3.29,0,0,0,1.86-.41,1.33,1.33,0,0,0,.6-1.15,1.09,1.09,0,0,0-.33-.84,2,2,0,0,0-.81-.44,13.36,13.36,0,0,0-1.32-.31,11.55,11.55,0,0,1-1.6-.38,2.56,2.56,0,0,1-1-.67,1.85,1.85,0,0,1-.43-1.28,2,2,0,0,1,.82-1.64,3.66,3.66,0,0,1,2.34-.65,5.76,5.76,0,0,1,1.59.22,4.05,4.05,0,0,1,1.27.59l-.36.64a4.09,4.09,0,0,0-1.17-.56,5,5,0,0,0-1.34-.19,3,3,0,0,0-1.76.43,1.36,1.36,0,0,0-.59,1.14,1.12,1.12,0,0,0,.34.87,2.13,2.13,0,0,0,.82.47,12.83,12.83,0,0,0,1.36.32,12.76,12.76,0,0,1,1.58.38,2.35,2.35,0,0,1,1,.65,1.73,1.73,0,0,1,.42,1.23,1.94,1.94,0,0,1-.87,1.66,4,4,0,0,1-2.42.63A5.85,5.85,0,0,1,219.92,380.35Z"/><path class="cls-2" d="M234.41,376.61h-7.18a3.61,3.61,0,0,0,.5,1.74,3.27,3.27,0,0,0,1.25,1.17,4,4,0,0,0,3.29.12,3,3,0,0,0,1.16-.87l.47.53a3.66,3.66,0,0,1-1.37,1,4.56,4.56,0,0,1-1.78.35,4.4,4.4,0,0,1-2.22-.55,3.94,3.94,0,0,1-1.53-1.5,4.39,4.39,0,0,1-.55-2.19,4.54,4.54,0,0,1,.52-2.19,3.85,3.85,0,0,1,1.43-1.51,4.16,4.16,0,0,1,4.08,0,3.8,3.8,0,0,1,1.42,1.5,4.48,4.48,0,0,1,.52,2.18Zm-5.55-3.34a3,3,0,0,0-1.12,1.11,3.58,3.58,0,0,0-.49,1.61h6.39a3.3,3.3,0,0,0-.48-1.6,3.26,3.26,0,0,0-4.3-1.12Z"/><path class="cls-1" d="M54.76,105.18V124S54.33,142.27,73,142.27H328.58s18.45.62,18.45-18.48v-19.1"/><line class="cls-1" x1="199.08" y1="104.69" x2="199.08" y2="157.31"/><line class="cls-1" x1="199.08" y1="250.29" x2="199.08" y2="302.92"/></svg>