<svg id="Layer_1" data-name="Layer 1" xmlns="http://www.w3.org/2000/svg" viewBox="0 0 400 400"><defs><style>.cls-1{fill:none;stroke:#fff;stroke-linecap:round;stroke-linejoin:round;stroke-width:2px;}.cls-2{font-size:16px;fill:#fff;font-family:Montserrat-Light, Montserrat Light;}.cls-3{letter-spacing:-0.05em;}.cls-4{letter-spacing:-0.01em;}.cls-5{letter-spacing:0em;}.cls-6{letter-spacing:-0.02em;}.cls-7{letter-spacing:0.02em;}.cls-8{letter-spacing:-0.02em;}.cls-9{letter-spacing:0em;}.cls-10{letter-spacing:0em;}</style></defs><title>stack</title><path class="cls-1" d="M182.8,16.22h29.4a5.89,5.89,0,0,1,5.89,5.89V69.24a5.89,5.89,0,0,1-5.89,5.89H182.8a5.89,5.89,0,0,1-5.88-5.89V22.11A5.89,5.89,0,0,1,182.8,16.22Z"/><line class="cls-1" x1="197.5" y1="63.35" x2="197.5" y2="63.35"/><path class="cls-1" d="M174,165.4H221a5.89,5.89,0,0,1,5.88,5.9v11.78A5.89,5.89,0,0,1,221,189H174a5.89,5.89,0,0,1-5.88-5.89V171.3A5.89,5.89,0,0,1,174,165.4Z"/><path class="cls-1" d="M174,200.75H221a5.89,5.89,0,0,1,5.88,5.89v11.78a5.89,5.89,0,0,1-5.88,5.89H174a5.88,5.88,0,0,1-5.88-5.89V206.64A5.89,5.89,0,0,1,174,200.75Z"/><line class="cls-1" x1="179.86" y1="177.19" x2="179.86" y2="177.19"/><line class="cls-1" x1="179.86" y1="212.53" x2="179.86" y2="212.53"/><path class="cls-1" d="M28.62,16.22H80.89a6.54,6.54,0,0,1,6.54,6.54V55.49A6.54,6.54,0,0,1,80.89,62H28.62a6.54,6.54,0,0,1-6.54-6.55V22.76A6.54,6.54,0,0,1,28.62,16.22Z"/><line class="cls-1" x1="41.69" y1="75.13" x2="67.83" y2="75.13"/><line class="cls-1" x1="54.76" y1="62.04" x2="54.76" y2="75.13"/><ellipse class="cls-1" cx="199.08" cy="317.03" rx="25.92" ry="8.65"/><path class="cls-1" d="M225,337.22c0,4.79-11.52,8.66-25.91,8.66s-25.92-3.87-25.92-8.66"/><path class="cls-1" d="M173.16,317v40.38c0,4.79,11.52,8.66,25.92,8.66S225,362.2,225,357.41V317"/><line class="cls-1" x1="374.1" y1="45.67" x2="309.89" y2="45.67"/><path class="cls-1" d="M321,23.52,309.89,45.67V65a6.43,6.43,0,0,0,6.42,6.43h51.37A6.42,6.42,0,0,0,374.1,65V45.67L363,23.52A6.43,6.43,0,0,0,357.28,20H326.71A6.4,6.4,0,0,0,321,23.52Z"/><line class="cls-1" x1="322.73" y1="58.54" x2="322.73" y2="58.54"/><line class="cls-1" x1="335.58" y1="58.54" x2="335.58" y2="58.54"/><text class="cls-2" transform="translate(36.27 93.37)"><tspan class="cls-3">W</tspan><tspan x="16.69" y="0">eb</tspan></text><text class="cls-2" transform="translate(172.16 93.37)">Mobile</text><text class="cls-2" transform="translate(303.2 93.37)">Ha<tspan class="cls-4" x="22.35" y="0">r</tspan><tspan class="cls-5" x="28.43" y="0">d</tspan><tspan class="cls-6" x="39.23" y="0">w</tspan><tspan x="52.77" y="0">a</tspan><tspan class="cls-4" x="62.1" y="0">r</tspan><tspan x="68.18" y="0">e</tspan></text><text class="cls-2" transform="translate(174.17 240.39)">Se<tspan class="cls-7" x="19.3" y="0">r</tspan><tspan class="cls-8" x="25.84" y="0">v</tspan><tspan x="34.05" y="0">er</tspan></text><text class="cls-2" transform="translate(159.8 380.59)">Data<tspan class="cls-9" x="38.24" y="0">b</tspan><tspan class="cls-10" x="49.01" y="0">ase</tspan></text><path class="cls-1" d="M54.76,105.18V124S54.33,142.27,73,142.27H328.58s18.45.62,18.45-18.48v-19.1"/><line class="cls-1" x1="199.08" y1="104.69" x2="199.08" y2="157.31"/><line class="cls-1" x1="199.08" y1="250.29" x2="199.08" y2="302.92"/></svg>