<svg id="Layer_1" data-name="Layer 1" xmlns="http://www.w3.org/2000/svg" viewBox="0 0 134.78 26.32"><defs><style>.cls-1{fill:#fff;}</style></defs><title>zeltta-logo</title><path class="cls-1" d="M17.16,21.77v4.14H.58V22.66L10,11.48H.82V7.33h16v3.25L7.38,21.77Z"/><path class="cls-1" d="M38.46,18.14h-14a4.39,4.39,0,0,0,1.79,2.73,6,6,0,0,0,3.53,1,7.1,7.1,0,0,0,2.57-.43,6.2,6.2,0,0,0,2.09-1.37l2.86,3.11c-1.75,2-4.3,3-7.66,3A12.08,12.08,0,0,1,24,25a9,9,0,0,1-3.73-3.4A9.33,9.33,0,0,1,19,16.62a9.51,9.51,0,0,1,1.29-4.92,9.08,9.08,0,0,1,3.56-3.42A10.52,10.52,0,0,1,28.9,7.06a10.37,10.37,0,0,1,4.93,1.17A8.53,8.53,0,0,1,37.3,11.6a10,10,0,0,1,1.26,5.09C38.56,16.76,38.53,17.24,38.46,18.14Zm-12.6-6A4.37,4.37,0,0,0,24.34,15h9.15A4.5,4.5,0,0,0,32,12.18a4.55,4.55,0,0,0-3-1A4.64,4.64,0,0,0,25.86,12.17Z"/><path class="cls-1" d="M42.16.29h5.38V25.91H42.16Z"/><path class="cls-1" d="M65.88,25a5.47,5.47,0,0,1-1.95.88,9.77,9.77,0,0,1-2.44.3,7.23,7.23,0,0,1-5.13-1.7,6.48,6.48,0,0,1-1.81-5V11.89H51.69V7.75h2.86V3.22h5.39V7.75h4.62v4.14H59.94v7.56a2.56,2.56,0,0,0,.6,1.82,2.25,2.25,0,0,0,1.71.63,3.48,3.48,0,0,0,2.18-.69Z"/><path class="cls-1" d="M80.48,25a5.47,5.47,0,0,1-2,.88,9.63,9.63,0,0,1-2.43.3A7.23,7.23,0,0,1,71,24.49a6.45,6.45,0,0,1-1.81-5V11.89H66.29V7.75h2.87V3.22h5.38V7.75h4.63v4.14H74.54v7.56a2.52,2.52,0,0,0,.61,1.82,2.25,2.25,0,0,0,1.71.63A3.45,3.45,0,0,0,79,21.21Z"/><path class="cls-1" d="M97.64,9.11q2.33,2.06,2.32,6.2v10.6h-5V23.6c-1,1.72-2.9,2.59-5.67,2.59a8.86,8.86,0,0,1-3.71-.73,5.49,5.49,0,0,1-2.4-2,5.23,5.23,0,0,1-.83-2.9,4.85,4.85,0,0,1,2-4.08q2-1.48,6-1.48h4.28a3.43,3.43,0,0,0-1.07-2.71,4.66,4.66,0,0,0-3.21-.95,9.43,9.43,0,0,0-2.92.46,8.07,8.07,0,0,0-2.43,1.26L83,9.3a12,12,0,0,1,3.65-1.66A16.31,16.31,0,0,1,91,7.06Q95.33,7.06,97.64,9.11ZM93.05,21.92A3.49,3.49,0,0,0,94.57,20v-1.9H90.88c-2.21,0-3.32.73-3.32,2.18A2,2,0,0,0,88.37,22a3.69,3.69,0,0,0,2.23.6A4.64,4.64,0,0,0,93.05,21.92Z"/></svg>